<svg xmlns="http://www.w3.org/2000/svg" width="310" height="304" fill="none"><path fill="#1D1D1D" d="M218 224h1l2-6 1 6h1l2-8h-1l-1 6-2-6h-1l-1 6h-1l-1-6h-1l2 8Zm8 0h5v-1h-4v-3h3-3v-3h4v-1h-5v8Zm6 0h3l2-2-1-2 1-2-2-2h-3v8Zm1-1v-3h2l1 2-1 1h-2Zm0-3v-3h2l1 1-1 2h-2Zm-26 4h1l2-6 1 6h1l2-8h-1l-1 6-2-6h-1l-1 6-2-6h-1l2 8Z"/><path fill="#1D1D1D" d="M215 224h5v-1h-4v-3h3-3v-3h4v-1h-5v8Zm6 0h3c2 0 2-1 2-2l-1-2 1-2-2-2h-3v8Zm1-1v-3h2l1 2-1 1h-2Zm0-3v-3h2l1 1-1 2h-2Zm-17 12h1l2-6 1 6h1l2-8h-1l-1 6-2-6h-1l-1 6-2-6h-1l2 8Zm8 0h5v-1h-4v-3h3-3v-3h4v-1h-5v8Zm6 0h3c2 0 2-1 2-2l-1-2 1-2-2-2h-3v8Zm1-1v-3h2l1 2-1 1h-2Zm0-3v-3h2l1 1-1 2h-2Zm11 20h1l1-6 2 6h1l2-8h-1l-2 6-1-6h-1l-2 6-1-6h-1l2 8Zm8 0h4v-1h-3v-3h3-3v-3h3v-1h-4v8Zm6 0h2c2 0 3-1 3-2 0-2-1-2-2-2l2-2c0-1-1-2-3-2h-2v8Zm1-1v-3h1l2 2-2 1h-1Zm0-4v-2h1l2 1-2 1h-1Zm-54 4h1l1-6 2 6h1l2-8h-1l-2 6-1-6h-1l-2 6-1-6h-1l2 8Zm8 0h4v-1h-3v-3h3-3v-3h3v-1h-4v8Zm6 0h3l2-2c0-2-1-2-2-2l2-2c0-1-1-2-3-2h-2v8Zm1-1v-3h2l1 2-1 1h-2Zm0-4v-2h1l2 1-2 1h-1Zm-19 32h1l1-5 2 5h1l2-7h-1l-2 6-1-6h-1l-2 6-1-6h-1l2 7Zm8 0h4-3v-3h3v-1h-3v-2h3v-1h-4v7Zm6 0h3l2-1c0-2-1-2-2-2l2-2c0-1-1-2-3-2h-2v7Zm1 0v-3h2l1 2-1 1h-2Zm0-4v-2h1l2 1-2 1h-1Zm-30 24h1l1-5 2 5h1l2-7h-1l-2 6-1-6h-1l-2 6-1-6h-1l2 7Zm8 0h4-3v-3h3v-1h-3v-2h3v-1h-4v7Zm6 0h3c1 0 2 0 2-2l-1-1 1-2c0-1-1-2-3-2h-2v7Zm1 0v-3h2l1 1-1 2h-2Zm0-4v-2h1l2 1-2 1h-1Zm-51 8h1l1-5 2 5h1l2-7h-1l-1 6-2-6h-1l-2 6-1-6h-1l2 7Zm8 0h5-4v-3h3v-1h-3v-2h3v-1h-4v7Zm6 0h3c1 0 2 0 2-2l-1-1 1-2-2-2h-3v7Zm1 0v-3h2l1 1-1 2h-2Zm0-4v-2h2l1 1-1 1h-2Zm58-29h1l2-6 1 6h1l2-8h-1l-1 6-2-6h-1l-1 6h-1l-1-6h-1l2 8Zm8 0h5v-1h-4v-3h3v-1h-3v-2h4v-1h-5v8Zm6 0h3c2 0 2-1 2-2l-1-2 1-2-2-2h-3v8Zm1-1v-3h2l1 2-1 1h-2Zm0-4v-2h2l1 1-1 1h-2Z"/><path fill="#1D1D1D" d="M208 275h1l2-5 1 5h1l2-7h-1l-1 6-2-6h-1l-1 6-2-6h-1l2 7Zm8 0h5-4v-3h3v-1h-3v-2h4v-1h-5v7Zm6 0h3l2-1-1-2 1-2-2-2h-3v7Zm1 0v-3h2l1 2-1 1h-2Zm0-4v-2h2l1 1-1 1h-2Zm-24-3h1l2-5 1 5h1l2-7h-1l-1 6-2-6h-1l-1 6-2-6h-1l2 7Zm8 0h5-4v-3h3v-1h-3v-2h4v-1h-5v7Zm6 0h3l2-1-1-2 1-2-2-2h-3v7Zm1 0v-3h2l1 2-1 1h-2Zm0-4v-2h2l1 1-1 1h-2Zm-30 24h1l2-5 1 5h1l2-7h-1l-1 6-2-6h-1l-1 6-2-6h-1l2 7Zm8 0h5-4v-3h3v-1h-3v-2h4v-1h-5v7Zm6 0h3l2-1-1-2 1-2-2-2h-3v7Zm1 0v-3h2l1 2-1 1h-2Zm0-4v-2h2l1 1-1 1h-2Zm-51 8h1l2-5 1 5h1l2-7h-1l-1 6-2-6h-1l-1 6-2-6h-1l2 7Zm8 0h5-4v-3h4v-1h-4v-2h4v-1h-5v7Zm6 0h3l2-1-1-2 1-2-2-2h-3v7Zm1 0v-3h2l2 2-2 1h-2Zm0-4v-2h2l1 1-1 1h-2Zm61-34h1l2-6 1 6h1l2-8h-1l-1 6-2-6h-1l-1 6h-1l-1-6h-1l2 8Zm8 0h5v-1h-4v-3h3-3v-3h4v-1h-5v8Zm6 0h3l2-2-1-2 1-2-2-2h-3v8Zm1-1v-3h2l1 2-1 1h-2Zm0-4v-2h2l1 1-1 1h-2Zm-12 13h1l2-6 1 6h1l2-8h-1l-1 6-2-6h-1l-1 6h-1l-1-6h-1l2 8Zm8 0h5v-1h-4v-3h3v-1h-3v-2h4v-1h-5v8Zm6 0h3l2-2-1-2 1-2-2-2h-3v8Zm1-1v-3h2l1 2-1 1h-2Zm0-4v-2h2l1 1-1 1h-2Z"/><path fill="#1D1D1D" d="M225 269h1l2-5 1 5h1l2-7h-1l-1 6-2-6h-1l-1 6h-1l-1-6h-1l2 7Zm8 0h5-4v-3h3v-1h-3v-2h4v-1h-5v7Zm6 0h3l2-1-1-2 1-2-2-2h-3v7Zm1 0v-3h2l1 2-1 1h-2Zm0-4v-2h2l1 1-1 1h-2Zm-33 19h1l2-5 1 5h1l2-7h-1l-1 6-2-6h-1l-1 6-2-6h-1l2 7Zm8 0h5-4v-3h3v-1h-3v-2h4v-1h-5v7Zm6 0h3l2-1-1-2 1-2-2-2h-3v7Zm1 0v-3h2l1 2-1 1h-2Zm0-4v-2h2l1 1-1 1h-2Zm69-140h1l1-6 2 6h1l2-7h-1l-2 5-1-5h-1l-2 5-1-5h-1l2 7Zm8 0h4v-1h-3v-2h3v-1h-3v-3h3-4v7Zm6 0h3l2-2-1-2 1-1c0-2-1-2-3-2h-2v7Zm1-1v-2h2l1 1-1 1h-2Zm0-3v-3h1l2 2-2 1h-1Zm-24-25h1l1-6 2 6h1l2-7h-1l-1 6h-1l-1-6h-1l-2 6-1-6h-1l2 7Zm8 0h4v-1h-3v-2h3v-1h-3v-3h3-4v7Zm6 0h3l2-2-1-2 1-1-2-2h-3v7Zm1-1v-2h2l1 1-1 1h-2Zm0-3v-3h2l1 2-2 1h-1Z"/><path fill="#1D1D1D" d="M288 117h1l1-6 2 6h1l2-7h-1l-1 6h-1l-1-6h-1l-2 6-1-6h-1l2 7Zm8 0h4v-1h-3v-2h3v-1h-3v-3h3-4v7Zm6 0h3l2-2-1-2 1-1-2-2h-3v7Zm1-1v-2h2l1 1-1 1h-2Zm0-3v-3h2l1 2-2 1h-1Zm-35-25h1l1-6 2 6h1l2-7h-1l-1 6h-1l-1-6h-1l-2 6-1-6h-1l2 7Zm8 0h4v-1h-3v-2h3v-1h-3v-2h3v-1h-4v7Zm6 0h3l2-2-1-2 1-1-2-2h-3v7Zm1-1v-2h2l1 1-1 1h-2Zm0-3v-2h2l1 1-1 1h-2Zm-46-37h1l2-6 1 6h1l2-7h-1l-1 6-2-6h-1l-2 6-1-6h-1l2 7Zm8 0h5v-1h-4v-2h3v-1h-3v-2h4v-1h-5v7Zm6 0h3l2-2-1-2 1-1-2-2h-3v7Zm1-1v-2h2l1 1-1 1h-2Zm0-3v-2h2l1 1-1 1h-2Zm-40 9h1l2-6 1 6h1l2-7h-1l-1 6-2-6h-1l-1 6h-1l-1-6h-1l2 7Zm8 0h5v-1h-4v-2h3v-1h-3v-2h4v-1h-5v7Zm6 0h3c2 0 2-1 2-2l-1-2 1-1-2-2h-3v7Zm1-1v-2h2l1 1-1 1h-2Zm0-3v-2h2l1 1-1 1h-2Zm-41 10h1l2-6 1 6h1l2-7h-1l-1 6-2-6h-1l-1 6-2-6h-1l2 7Zm8 0h5v-1h-4v-2h3v-1h-3v-2h4v-1h-5v7Zm6 0h3c2 0 2-1 2-2l-1-2 1-1-2-2h-3v7Zm1-1v-2h2l1 1-1 1h-2Zm0-3v-2h2l1 1-1 1h-2Zm-25 230h1l2-5 1 5h1l2-7h-1l-1 6-2-6h-1l-1 6-2-6h-1l2 7Zm8 0h5-4v-3h3v-1h-3v-2h4v-1h-5v7Zm6 0h3l2-1-1-2 1-2-2-2h-3v7Zm1 0v-3h2l1 2-1 1h-2Zm0-4v-2h2l1 1-1 1h-2Zm-18-103h1l2-6 1 6h1l2-8h-1l-1 6-2-6h-1l-1 6-2-6h-1l2 8Zm8 0h5v-1h-4v-3h3-3v-3h4v-1h-5v8Zm6 0h3c2 0 2-1 2-2l-1-2 1-2-2-2h-3v8Zm1-1v-3h2l1 2-1 1h-2Zm0-3v-3h2l1 1-1 2h-2ZM76 280h1l2-5 2 5h1l1-7-2 6-2-6h-1l-1 6-2-6h-1l2 7Zm9 0h4-4v-3h4v-1h-4v-2h4v-1h-4v7Zm6 0h2l3-1c0-2-1-2-2-2l1-2c0-1 0-2-2-2h-2v7Zm0 0v-3h2l2 2-2 1h-2Zm0-4v-2h2l1 1-1 1h-2Zm-22-12h1l2-6 2 6h1l2-8h-1l-2 6-2-6-2 6-2-6h-1l2 8Zm9 0h4v-1h-4v-3h4v-1h-4v-2h4v-1h-4v8Zm6 0h2c2 0 3-1 3-2 0-2-1-2-2-2l1-2c0-1 0-2-2-2h-2v8Zm0-1v-3h2l2 2-2 1h-2Zm0-4v-2h2l1 1-1 1h-2Zm2-14h1l2-6 2 6 2-8-2 6-2-6h-1l-1 6-2-6h-1l2 8Zm9 0h4v-1h-4v-3h4-4v-3h4v-1h-4v8Zm6 0h2c2 0 3-1 3-2 0-2-1-2-2-2l1-2c0-1 0-2-2-2h-2v8Zm0-1v-3h2l2 2-2 1h-2Zm0-4v-2h2l1 1-1 1h-2Zm-62-40 2-6 2 6h1l2-8h-1l-2 6-1-6h-1l-2 6-2-6 2 8Zm8 0h4v-1h-3v-3h3-3v-3h3v-1h-4v8Zm6 0h2c2 0 3-1 3-2l-2-2 1-2c0-1 0-2-2-2h-2v8Zm1-1v-3h1l2 2-2 1h-1Zm0-3v-3h1l2 1-2 2h-1Zm108-43h1l2-6 1 6h1l2-7h-1l-1 5-2-5h-1l-1 5-2-5h-1l2 7Zm8 0h5v-1h-4v-2h4v-1h-4v-3h4-5v7Zm6 0h3c2 0 2-1 2-2l-1-2 1-2-2-1h-3v7Zm1-1v-2h2l2 1-2 1h-2Zm0-3v-3h2l1 1-1 2h-2Zm-33-3h1l2-6 1 6h1l2-7h-1l-1 5-2-5h-1l-1 5-2-5h-1l2 7Zm8 0h5v-1h-4v-2h4v-1h-4v-3h4-5v7Zm6 0h3c2 0 2-1 2-2l-1-2 1-1c0-2-1-2-2-2h-3v7Zm1-1v-2h2l2 1-2 1h-2Zm0-3v-3h2l1 2-1 1h-2Z"/><path fill="#1D1D1D" d="M163 145h1l2-6 1 6h1l2-7h-1l-1 5-2-5h-1l-1 5-2-5h-1l2 7Zm8 0h5v-1h-4v-2h4v-1h-4v-3h4-5v7Zm6 0h3c2 0 2-1 2-2l-1-2 1-1c0-2-1-2-2-2h-3v7Zm1-1v-2h2l2 1-2 1h-2Zm0-3v-3h2l1 2-1 1h-2ZM50 172l2-6 2 6h1l2-7h-1l-2 5-1-5h-1l-2 5-2-5 2 7Zm8 0h4v-1h-3v-2h3v-1h-3v-3h3-4v7Zm6 0h2c2 0 3-1 3-2l-2-2 1-2-2-1h-2v7Zm1-1v-3h1l2 2-2 1h-1Zm0-3v-3h1l2 1-2 2h-1Zm-54 17h1l1-6 2 6h1l2-8h-1l-2 6-1-6h-1l-2 6-1-6H9l2 8Zm8 0h4v-1h-3v-3h3-3v-3h3v-1h-4v8Zm6 0h2c2 0 3-1 3-2l-2-2 1-2c0-1 0-2-2-2h-2v8Zm1-1v-3h1l2 2-2 1h-1Zm0-3v-3h1l2 1-2 2h-1Zm-15-10h1l1-6 2 6h1l2-7h-1l-2 5-1-5h-1l-2 5-1-5H9l2 7Zm8 0h4v-1h-3v-2h3v-1h-3v-3h3-4v7Zm6 0h2c2 0 3-1 3-2l-2-2 1-2-2-1h-2v7Zm1-1v-3h1l2 2-2 1h-1Zm0-3v-3h1l2 1-2 2h-1Zm10 9 2-6 2 6h1l2-8h-1l-2 6-1-6h-1l-2 6-2-6 2 8Zm8 0h4v-1h-3v-2h3v-1h-3v-3h3v-1h-4v8Z"/><path fill="#1D1D1D" d="M50 176h2c2 0 3-1 3-2l-2-2 1-2c0-1 0-2-2-2h-2v8Zm1-1v-3h1l2 2-2 1h-1Zm0-3v-3h1l2 1-2 2h-1Zm-35 5h1l1-6 2 6h1l2-8h-1l-2 6-1-6h-1l-2 6-1-6h-1l2 8Zm8 0h4v-1h-3v-3h3-3v-3h3v-1h-4v8Zm6 0h2c2 0 3-1 3-2l-2-2 1-2c0-1 0-2-2-2h-2v8Zm1-1v-3h1l2 2-2 1h-1Zm0-3v-3h1l2 1-2 2h-1Zm-1-12 2-6 2 6h1l2-7h-1l-2 5-1-5h-1l-2 5-2-5 2 7Zm8 0h4v-1h-3v-2h3v-1h-3v-3h3-4v7Zm6 0h2c2 0 3-1 3-2l-2-2 1-2-2-1h-2v7Zm1-1v-3h1l2 2-2 1h-1Zm0-3v-3h1l2 1-2 2h-1ZM4 119h1l1-6 2 6h1l2-7h-1l-2 6-1-6H6l-2 6-1-6H2l2 7Zm8 0h4v-1h-3v-2h3v-1h-3v-3h3-4v7Zm6 0h2c2 0 3-1 3-2l-2-2 2-1c0-1-1-2-3-2h-2v7Zm1-1v-2h1l2 1-2 1h-1Zm0-3v-3h1l2 2-2 1h-1Zm-4-30h1l1-6 2 6h1l2-7h-1l-2 6-1-6h-1l-2 6-1-6h-1l2 7Zm8 0h4v-1h-3v-2h3v-1h-3v-2h3v-1h-4v7Zm6 0h2c2 0 3-1 3-2l-2-2 1-1c0-1 0-2-2-2h-2v7Zm1-1v-2h1l2 1-2 1h-1Zm0-3v-2h1l2 1-2 1h-1Zm18-21 2-6 2 6h1l2-7h-1l-2 6-1-6h-1l-2 6-2-6 2 7Zm8 0h4v-1h-3v-2h3v-1h-3v-2h3v-1h-4v7Zm6 0h2c2 0 3-1 3-2l-2-2 1-1c0-1 0-2-2-2h-2v7Zm1-1v-2h1l2 1-2 1h-1Zm0-3v-2h1l2 1-2 1h-1Zm-15-9 2-6 2 6h1l2-7h-1l-2 6-1-6h-1l-2 6-2-6 2 7Zm8 0h4v-1h-3v-2h3v-1h-3v-2h3v-1h-4v7Zm6 0h2c2 0 3-1 3-2l-2-2 1-1c0-1 0-2-2-2h-2v7Zm1-1v-2h1l2 1-2 1h-1Zm0-3v-2h1l2 1-2 1h-1ZM34 63l2-6 2 6h1l2-7h-1l-2 6-1-6h-1l-2 6-2-6 2 7Zm8 0h4v-1h-3v-2h3v-1h-3v-2h3v-1h-4v7Z"/><path fill="#1D1D1D" d="M48 63h2c2 0 3-1 3-2l-2-2 1-1c0-1 0-2-2-2h-2v7Zm1-1v-2h1l2 1-2 1h-1Zm0-3v-2h1l2 1-2 1h-1Zm17-8h1l2-6 2 6h1l2-7h-1l-2 6-1-6h-1l-2 6-2-6h-1l2 7Zm9 0h4v-1h-4v-2h4v-1h-4v-2h4v-1h-4v7Zm6 0h2c2 0 3-1 3-2l-2-2 1-1c0-1 0-2-2-2h-2v7Zm0-1v-2h2l2 1-2 1h-2Zm0-3v-2h2l2 1-2 1h-2ZM63 37h1l2-6 2 6h1l2-7h-1l-2 6-1-6h-1l-2 6-2-6h-1l2 7Zm9 0h4v-1h-3v-2h3v-1h-3v-2h3v-1h-4v7Zm6 0h2c2 0 3-1 3-2l-2-2 1-1c0-1 0-2-2-2h-2v7Zm0-1v-2h2l2 1-2 1h-2Zm0-3v-2h2l2 1-2 1h-2Zm17-7h1l2-6 2 6 2-7-2 6-2-6h-1l-1 6-2-6h-1l2 7Zm9 0h4v-1h-4v-2h4v-1h-4v-2h4v-1h-4v7Zm5 0h3c2 0 3-1 3-2l-2-2 1-1c0-1 0-2-2-2h-3v7Zm1-1v-2h2l2 1-2 1h-2Zm0-3v-2h2l1 1-1 1h-2ZM94 43h1l2-6 2 6 2-7-2 6-2-6h-1l-1 6-2-6h-1l2 7Zm9 0h4v-1h-4v-2h4v-1h-4v-2h4v-1h-4v7Zm6 0h2c2 0 3-1 3-2l-2-2 1-1c0-1 0-2-2-2h-2v7Zm0-1v-2h2l2 1-2 1h-2Zm0-3v-2h2l1 1-1 1h-2Z"/><path fill="#1D1D1D" d="M110 39h1l2-6 2 6 2-7-2 6-2-6h-1l-1 6-2-6h-1l2 7Zm8 0h5v-1h-4v-2h4v-1h-4v-2h4v-1h-5v7Zm6 0h3c2 0 3-1 3-2l-2-2 1-1c0-1 0-2-2-2h-3v7Zm1-1v-2h2l2 1-2 1h-2Zm0-3v-2h2l1 1-1 1h-2Zm11-18h1l2-6 1 6h1l2-7h-1l-1 6-2-6h-1l-1 6-2-6h-1l2 7Zm8 0h5v-1h-4v-2h4v-1h-4v-2h4v-1h-5v7Zm6 0h3c2 0 2-1 2-2l-1-2 1-1-2-2h-3v7Zm1-1v-2h2l2 1-2 1h-2Zm0-3v-2h2l1 1-1 1h-2Zm-58 2h1l2-6 2 6 2-7-2 6-2-6h-1l-1 6-2-6h-1l2 7Zm9 0h4v-1h-4v-2h4v-1h-4V9h4V8h-4v7Zm6 0h2c2 0 3-1 3-2l-2-2 1-1c0-1 0-2-2-2h-2v7Zm0-1v-2h2l2 1-2 1h-2Zm0-3V9h2l1 1-1 1h-2Zm36 139h1l2-6 1 6h1l2-7h-1l-1 5-2-5h-1l-1 5-2-5h-1l2 7Zm8 0h5v-1h-4v-2h4v-1h-4v-3h4-5v7Zm6 0h3c2 0 2-1 2-2l-1-2 1-2-2-1h-3v7Zm1-1v-2h2l2 1-2 1h-2Zm0-3v-3h2l1 1-1 2h-2Zm-36 1h1l2-6 1 6h1l2-7h-1l-1 5-2-5h-1l-1 5-2-5h-1l2 7Zm8 0h5v-1h-4v-2h4v-1h-4v-3h4-5v7Zm6 0h3c2 0 2-1 2-2l-1-2 1-2-2-1h-3v7Zm1-1v-2h2l2 1-2 1h-2Zm0-3v-3h2l1 1-1 2h-2Zm-31 4h1l2-6 2 6 2-7-2 5-2-5h-1l-1 5-2-5h-1l2 7Zm9 0h4v-1h-4v-2h4v-1h-4v-3h4-4v7Z"/><path fill="#1D1D1D" d="M121 147h3c2 0 3-1 3-2l-2-2 1-2-2-1h-3v7Zm1-1v-2h2l2 1-2 1h-2Zm0-3v-3h2l1 1-1 2h-2Zm-15 14h1l2-6 2 6 2-7-2 5-2-5h-1l-1 5-2-5h-1l2 7Zm9 0h4v-1h-4v-2h4v-1h-4v-3h4-4v7Zm5 0h3c2 0 3-1 3-2l-2-2 1-2-2-1h-3v7Zm1-1v-3h2l2 2-2 1h-2Zm0-3v-3h2l1 1-1 2h-2Zm3-30h1l2-6 1 6h1l2-7h-1l-1 6-2-6h-1l-1 6-2-6h-1l2 7Zm8 0h5v-1h-4v-2h4v-1h-4v-3h4-5v7Zm6 0h3c2 0 2-1 2-2l-1-2 1-1-2-2h-3v7Zm1-1v-2h2l2 1-2 1h-2Zm0-3v-3h2l1 2-1 1h-2Zm21 48h1l2-6 1 6h1l2-7h-1l-1 5-2-5h-1l-1 5-2-5h-1l2 7Zm8 0h5v-1h-4v-2h4v-1h-4v-3h4-5v7Zm6 0h3c2 0 2-1 2-2l-1-2 1-2-2-1h-3v7Zm1-1v-3h2l2 2-2 1h-2Zm0-3v-3h2l1 1-1 2h-2ZM64 270h1l2-5 2 5h1l2-7h-1l-2 6-1-6h-1l-2 6-2-6h-1l2 7Zm9 0h4-3v-3h3v-1h-3v-2h3v-1h-4v7Zm6 0h2l3-1c0-2-1-2-2-2l1-2c0-1 0-2-2-2h-2v7Zm0 0v-3h2l2 2-2 1h-2Zm0-4v-2h2l2 1-2 1h-2Zm-22-12h1l2-6 2 6h1l2-8h-1l-2 6-1-6h-1l-2 6-2-6 1 8Zm9 0h4v-1h-3v-3h3-3v-3h3v-1h-4v8Zm6 0h2c2 0 3-1 3-2 0-2-1-2-2-2l1-2c0-1 0-2-2-2h-2v8Zm0-1v-3h2l2 2-2 1h-2Zm0-4v-2h2l2 1-2 1h-2Zm2-14h1l2-6 2 6h1l2-8h-1l-2 6-2-6h-1l-1 6-2-6h-1l2 8Zm9 0h4v-1h-4v-3h4-4v-3h4v-1h-4v8Zm6 0h2c2 0 3-1 3-2l-2-2 1-2c0-1 0-2-2-2h-2v8Zm0-1v-3h2l2 2-2 1h-2Zm0-3v-3h2l1 1-1 2h-2Zm-62-41 2-6 2 6h1l2-8h-1l-2 6-1-6h-1l-2 6-2-6 2 8Zm8 0h4v-1h-3v-3h3-3v-3h3v-1h-4v8Zm6 0h2c2 0 3-1 3-2l-2-2 1-2c0-1 0-2-2-2h-2v8Zm1-1v-3h1l2 2-2 1h-1Zm0-3v-3h1l2 1-2 2h-1Zm124 90h1l2-5 1 5h1l2-7h-1l-1 6-2-6h-1l-1 6-2-6h-1l2 7Zm8 0h5-4v-3h3v-1h-3v-2h4v-1h-5v7Zm6 0h3l2-1-1-2 1-2-2-2h-3v7Zm1 0v-3h2l2 2-2 1h-2Zm0-4v-2h2l1 1-1 1h-2Zm-30 24h1l2-5 1 5h1l2-7h-1l-1 6-2-6h-1l-1 6-2-6h-1l2 7Zm8 0h5-4v-3h4v-1h-4v-2h4v-1h-5v7Zm6 0h3c2 0 2 0 2-2l-1-1 1-2-2-2h-3v7Zm1 0v-3h2l2 1-2 2h-2Zm0-4v-2h2l1 1-1 1h-2Zm-51 8h1l2-5 2 5 2-7h-1l-1 6-2-6h-1l-1 6-2-6h-1l2 7Zm8 0h5-4v-3h4v-1h-4v-2h4v-1h-5v7Zm6 0h3c2 0 2 0 2-2l-1-1 1-2-2-2h-3v7Zm1 0v-3h2l2 1-2 2h-2Zm0-4v-2h2l1 1-1 1h-2Zm59-71h1v-6h1l2 5h1l1-7h-1l-1 6-2-6h-1l-1 6-2-5h-1l3 7Zm8-1 4-1v-1l-3 1-1-3h3v-1l-3 1v-3h3v-1h-4l1 8Zm6-1h2c2-1 3-2 2-3l-1-1 1-2c0-1-1-2-3-2l-2 1 1 7Zm0-1v-2l2-1 2 1-2 2h-2Zm0-3v-3h1l2 1-1 2h-2Zm11 22h1l1-6 2 5h1l1-7h-1v6l-3-6h-1v6l-3-5h-1l3 7Zm8-1 5-1v-1l-4 1v-3h3v-1l-3 1-1-3h4v-1h-5l1 8Zm6-1h3c2-1 2-2 2-3l-2-1 1-2-2-2-3 1 1 7Zm1-1v-2l2-1 1 1-1 2h-2Zm0-3-1-3h2l2 1-2 2h-1Zm-54 5h1l1-6 3 5 1-7-1 6-3-6-1 6-3-5 2 7Zm8-1 5-1v-1l-4 1v-3h3v-1l-3 1v-3h3v-1h-4v8Zm6-1h3c2-1 2-2 2-3l-2-1c1-1 2-1 1-2 0-1 0-2-2-2l-3 1 1 7Zm1-1v-2l2-1 1 1-1 2h-2Zm0-3-1-3h2l2 1-2 2h-1Zm-19 34 1-1 1-5 3 5 2-8-1 1-1 6-2-6h-1l-1 6-3-6v1l2 7Zm8-1 5-1v-1l-4 1v-3h3v-1h-3v-2h3v-1h-4v8Zm6-1 3-1c2 0 2-1 2-2l-2-1c1-1 2-1 1-2 0-1 0-2-2-2l-2 1v7Zm1-1v-3h2l1 1-1 2h-2Zm0-3-1-3h2l2 1-2 1-1 1Zm-30 25h1l1-6 3 6 2-8-1 1-1 6-2-6h-1l-1 6-3-6v1l2 6Zm9-1h4v-1l-4 1v-3h3v-1h-3v-2h3v-1h-4l1 7Zm5 0 3-1c2 0 2-1 2-2l-1-1 1-2c-1-1-1-2-3-2l-2 1v7Zm1-1v-3h2l1 1-1 2h-2Zm0-3v-3h1l2 1-2 1-1 1Zm-50 9 1-6 3 6h1l1-8-1 1-1 6-2-6h-1l-1 6-2-6-1 1 3 6Zm8-1h4v-1l-4 1v-3h3v-1h-3v-2h3v-1h-4l1 7Zm6 0 2-1c2 0 2-1 2-2l-1-1 1-2c-1-1-1-2-3-2l-2 1 1 7Zm0-1v-3h2l1 1c1 1 0 2-1 2h-2Zm0-3v-3h1l2 1-1 1-2 1Zm28-23h1l1-6 3 5 2-7h-1l-1 6-2-6h-1l-1 6-3-5 2 7Z"/><path fill="#1D1D1D" d="m172 262 4-1h-4v-2l3-1v-1l-3 1v-3h3v-1l-4 1 1 7Zm5-1h3c2 0 2-1 2-2l-1-2v-2c0-1 0-2-2-1h-2v7Zm1-1v-2h2c1-1 1 0 1 1l-1 1h-2Zm0-3-1-2 2-1 2 1-2 2h-1Zm-30 26h1l1-6 3 5 2-7h-1l-1 6-2-6h-1l-1 6-3-5 2 7Zm9-1 4-1v-1l-4 1v-3h3v-1l-3 1v-3h3v-1l-4 1 1 7Zm5-1h3c2 0 2-1 2-2l-1-2 1-2c-1-1-1-2-3-1h-2v7Zm1-1v-2l2-1 1 2-1 1h-2Zm0-3v-2l1-1 2 1-2 2h-1Zm-50 10 1-6 3 5h1l1-7h-1l-1 6-2-6h-1l-1 6-2-5h-1l3 7Zm8-1 4-1v-1l-4 1v-3h3v-1l-3 1v-3h3v-1l-4 1 1 7Zm6-1h2c2 0 2-1 2-2l-1-2 1-2c-1-1-1-2-3-1h-2l1 7Zm0-1v-2l2-1 1 2-1 1h-2Zm0-3v-2l1-1 2 1-1 2h-2Zm34-25h1l1-6 3 5 2-7h-1l-1 6-2-6h-1l-1 6-3-5 2 7Zm9-1 4-1h-4v-2l3-1v-1l-3 1v-3h3v-1l-4 1 1 7Z"/><path fill="#1D1D1D" d="M175 254h3c2 0 2-1 2-2l-1-2v-2c0-1 0-2-2-1h-2v7Zm1-1v-2h2c1-1 1 0 1 1l-1 1h-2Zm0-3-1-2 2-1 2 1-2 2h-1Zm-27 21h1l1-6 3 5 2-7h-1l-1 6-2-6h-1l-1 6-3-5 2 7Zm9-1 4-1h-4v-2l3-1v-1l-3 1v-3h3v-1l-4 1 1 7Zm5-1h3c2 0 2-1 2-2l-1-2 1-2c-1-1-1-2-3-1h-2v7Zm1-1v-2h2c1-1 1 0 1 1l-1 1h-2Zm0-3v-2l1-1 2 1-2 2h-1Zm26 14h1l1-6 2 5h1l1-7-1 6-3-6h-1v6l-3-5h-1l3 7Zm8-1 5-1h-4v-3h3v-1l-3 1v-3h3v-1l-4 1v7Zm6-1h3c2 0 2-1 2-2 0-2-1-2-2-2 1 0 2-1 1-2 0-1-1-2-2-1h-3l1 7Zm1-1v-2l2-1 1 2-1 1h-2Zm0-3-1-2 2-1 2 1-2 2h-1Zm-30 31h1l1-6 3 5 1-7-1 6-3-6-1 6-3-5 2 7Zm8-1 5-1v-1l-4 1v-3h3v-1l-3 1v-3h3v-1l-4 1v7Zm6-1h3c2-1 2-1 2-3l-2-1c1 0 2-1 1-2 0-1 0-2-2-1h-3l1 7Zm1-1v-2l2-1 1 2-1 1h-2Zm0-3-1-3h2l2 1-2 2h-1Zm9-5h1l1-6 2 5h1l1-7-1 6-3-6h-1v6l-3-5h-1l3 7Zm8-1 5-1v-1l-4 1v-3h3v-1l-3 1-1-3h4v-1l-4 1v7Zm6-1h3c2 0 2-1 2-2 0-2-1-2-2-2l1-2c0-1-1-2-2-1h-3l1 7Zm1-1v-2l2-1 1 2-1 1h-2Zm0-3-1-2 2-1 2 1-2 2h-1Zm-60 17h1l1-6 3 5 2-7h-1l-1 6-2-6h-1l-1 6-3-5 2 7Zm9-1 4-1v-1l-4 1v-3h3v-1l-3 1v-3h3v-1l-4 1 1 7Zm5-1h3c2-1 2-1 2-3l-1-1 1-2c-1-1-1-2-3-1h-2v7Zm1-1v-2l2-1 1 2-1 1h-2Zm0-3v-3h1l2 1-2 2h-1Zm-4-56h1l1-6 3 5 2-7h-1l-1 6-2-6h-1l-1 7-3-6 2 7Zm8-1 5-1h-4v-2l3-1v-1l-3 1v-3h3v-1l-4 1v7Zm6-1h3c2 0 2-1 2-2l-1-2h-1c1 0 2-1 1-2 0-1 0-2-2-1h-2v7Zm1-1v-2h2c1-1 1 0 1 1l-1 1h-2Zm0-3-1-2 2-1 2 1-2 2h-1Zm-6-4h1l1-6 3 5 1-7-1 6-2-6-1 1-1 6-3-6 2 7Zm8-1 5-1h-4v-2l3-1v-1l-3 1v-3h3v-1l-4 1v7Zm6-1h3c2 0 2-1 2-2l-2-2c1 0 2-1 1-2l-2-1h-3l1 7Zm1-1v-2h2c1-1 1 0 1 1l-1 1h-2Zm0-3-1-2 2-1 2 1-2 2h-1Zm-10-4h1l1-6 3 5 1-7-1 6-3-6v1l-1 6-3-6 2 7Zm8-1 5-1h-4v-2l3-1v-1l-3 1v-3h3v-1l-4 1v7Zm6-1h3c2 0 2-1 2-2l-2-2c1 0 2-1 1-2l-2-1h-3l1 7Zm1-1v-2h2l1 1-1 1h-2Zm0-3-1-2h4l-2 2h-1Zm1-26h1l1-6 2 6 1-1 1-7-1 6-3-6-1 1v6l-3-6h-1l3 7Zm8-1h5v-1h-4v-2l3-1h-3l-1-2 4-1v-1l-4 1v7Zm6-1h3c2 0 2-1 2-2l-2-2c1 0 2-1 1-2l-2-1h-3l1 7Zm1-1v-2h2l1 1-1 1h-2Zm0-3-1-2h2c1-1 1 0 2 1l-2 1h-1Zm-17 15h1l1-6 2 6 1-1 1-7-1 6-3-6-1 1v6l-3-6h-1l3 7Zm8-1 5-1h-4v-2l3-1h-3l-1-2 4-1v-1l-4 1v7Zm6-1h3c2 0 2-1 2-2l-2-2c1 0 2-1 1-2l-2-1h-3l1 7Zm1-1v-2h2l1 1-1 1h-2Zm0-3-1-2h2c1-1 1 0 2 1l-2 1h-1Zm-15 69 1-1 1-5 2 5h1l1-7-1 6-3-6h-1v6l-3-5h-1l3 7Zm8-1 5-1v-1l-4 1v-3h3v-1h-3l-1-2h4v-1h-4v8Zm6-1h3c2-1 2-2 2-3l-2-1c1-1 2-1 1-2l-2-2-3 1 1 7Zm1-1v-3h2l1 1-1 2h-2Zm0-3-1-3h2l2 1-2 1-1 1ZM92 291h1v-6l3 6h1l1-8-1 1-1 6-2-6h-1l-1 6-2-6-1 1 3 6Zm8-1h4v-1l-4 1v-3h3v-1h-3v-2h3v-1h-4l1 7Zm6 0 2-1c2 0 3-1 2-2l-1-1 1-2c0-1-1-2-3-2l-2 1 1 7Zm0-1v-3h2l2 1-2 2h-2Zm0-3v-3h1l2 1-1 1-2 1Zm-29-1h1v-6l3 6h1l1-8-1 1-1 6-2-6h-1l-1 6-2-6-1 1 3 6Zm8-1h4v-1l-3 1-1-3h3v-1h-3v-2h3v-1h-4l1 7Z"/><path fill="#1D1D1D" d="m91 284 2-1c2 0 3-1 2-2l-1-1 1-2c0-1-1-2-3-2l-2 1 1 7Zm0-1v-3h2l2 1-2 2h-2Zm0-3v-3h1l2 1-1 1-2 1Zm121-66h1l1-6 2 5h1l1-7-1 6-3-6-1 1v6l-3-6h-1l3 7Zm8-1 5-1h-4v-2l3-1v-1l-3 1-1-3h4v-1l-5 1 1 7Zm6-1h3c2 0 2-1 2-2l-2-2 1-2-2-1h-3l1 7Zm1-1v-2h2l1 1-1 1h-2Zm0-3-1-2h4l-2 2h-1Zm-26-2h1l1-6 2 6 1-1 1-7-1 6-3-6-1 1v6l-3-6h-1l3 7Zm8-1 5-1h-4v-2l3-1h-3l-1-3h4v-1l-4 1v7Zm6-1h3c2 0 2-1 2-2l-2-2 1-2-2-1h-3l1 7Zm1-1v-2h2l1 1-1 1h-2Zm0-3-1-2h2c1-1 1 0 2 1l-2 1h-1Zm-30 48h1l1-6 2 5h1l1-7-1 6-3-6h-1v7l-3-6h-1l3 7Zm8-1 5-1h-4v-2l3-1v-1l-3 1v-3h3v-1l-4 1v7Zm6-1h3c2 0 2-1 2-2l-2-2c1 0 2-1 1-2 0-1-1-2-2-1h-3l1 7Zm1-1v-2h2c1-1 1 0 1 1l-1 1h-2Zm0-3-1-2 2-1 2 1-2 2h-1Zm24 4h1l1-6 2 5h1l1-7h-1v6l-3-6h-1v7h-1l-2-6h-1l3 7Zm8-1 5-1h-4v-2l3-1v-1l-3 1-1-3h4v-1l-5 1 1 7Zm6-1h3c2 0 2-1 2-2l-2-2 1-2c0-1-1-2-2-1h-3l1 7Zm1-1v-2h1c1-1 2 0 2 1l-1 1h-2Zm0-3-1-2 2-1 1 1c1 1 0 2-1 2h-1Zm-11-19h1l1-6 2 5h1l1-7h-1v6l-3-6-1 1v6h-1l-2-6h-1l3 7Zm8-1 5-1h-4v-2l3-1v-1l-3 1-1-3h4v-1l-5 1 1 7Zm6-1h3c2 0 2-1 2-2l-2-2 1-2-2-1h-3l1 7Zm1-1v-2h1l2 1-1 1h-2Zm0-3-1-2h3c1 1 0 2-1 2h-1Z"/><path fill="#1D1D1D" d="M218 213h1l1-6 2 5h1l1-7h-1v6l-3-6-1 1v6l-3-6h-1l3 7Zm8-1 5-1h-4v-2l3-1v-1l-3 1-1-3h4v-1l-5 1 1 7Zm6-1h3c2 0 2-1 2-2l-2-2 1-2-2-1h-3l1 7Zm1-1v-2h2l1 1-1 1h-2Zm0-3-1-2h2c1-1 1 0 2 1l-2 1h-1Zm-30 48h1l1-6 2 5h1l1-7-1 6-3-6h-1v7l-3-6h-1l3 7Zm8-1 5-1h-4v-2l3-1v-1l-3 1-1-3h4v-1l-5 1 1 7Zm6-1h3c2 0 2-1 2-2 0-2-1-2-2-2l1-2c0-1-1-2-2-1h-3l1 7Zm1-1v-2h2l1 1-1 1h-2Zm0-3-1-2 2-1 2 1-2 2h-1Zm24 4h1l1-6 2 5h1l1-7h-1v6l-3-6h-1v6l-1 1-2-6h-1l3 7Zm8-1 5-1h-4v-2l3-1v-1l-3 1-1-3h4v-1l-5 1 1 7Zm6-1h3l2-2c0-2-1-2-2-2l1-2c0-1-1-2-2-1h-3l1 7Zm1-1v-2h1c1-1 2 0 2 1l-1 1h-2Zm0-3-1-2 2-1 1 1c1 1 0 2-1 2h-1Zm-34-45h1l1-6 2 6 1-1 1-7h-1v6l-3-6-1 1v6l-3-6h-1l3 7Zm8-1 5-1h-4v-2l3-1h-3l-1-2 4-1v-1l-5 1 1 7Zm6-1h3c2 0 2-1 2-2l-2-2 1-2-2-1h-3l1 7Zm1-1v-2h1l2 1-1 1h-2Zm0-3-1-2h2c1-1 1 0 1 1l-1 1h-1Zm-26-2h1l1-6 2 6 1-1 1-7-1 6-3-6-1 1v6l-3-6h-1l3 7Zm8-1h5v-1h-4v-2l3-1h-3l-1-2 4-1v-1l-5 1 1 7Zm6-1h3c2 0 2-1 2-2l-2-2 1-2-2-1h-3l1 7Zm1-1v-2h2l1 1-1 1h-2Zm0-3-1-2h2c1-1 1 0 2 1l-2 1h-1Zm-15-3h1l1-6 2 6 1-1 1-7-1 6-3-5h-1v6l-3-6h-1l3 7Zm8-1h5v-1h-4v-2l3-1h-3l-1-2 4-1v-1l-5 1 1 7Zm6-1h3c2 0 2-1 2-2l-2-2 1-2-2-1h-3l1 7Zm1-1v-2h2l1 1-1 1h-2Zm0-3-1-2h2c1-1 1 0 2 1l-2 1h-1Zm-31 6h1l1-6 2 6 1-1 1-7-1 6-3-5h-1v6l-3-6h-1l3 7Zm8-1h5v-1h-4v-2l3-1h-3l-1-2 4-1v-1l-4 1v7Z"/><path fill="#1D1D1D" d="M210 183h3c2 0 2-1 2-2l-2-2c1 0 2-1 1-2l-2-1h-3l1 7Zm1-1v-2h2l1 1-1 1h-2Zm0-3-1-2h2c1-1 1 0 2 1l-2 1h-1Zm-9-7h1l1-6 2 6 1-1 1-7-1 6-3-5h-1v6l-3-6h-1l3 7Zm8-1h5v-1h-4v-2l3-1h-3l-1-2 4-1v-1l-4 1v7Zm6-1h3c2 0 2-1 2-2l-2-2 1-1c0-2-1-2-2-2h-3l1 7Zm1-1v-2h2l1 1-1 1h-2Zm0-3-1-2h2l2 1-2 1h-1Zm-27 10h1l1-6 2 6 1-1 1-7-1 6-3-5h-1v6l-3-6h-1l3 7Z"/><path fill="#1D1D1D" d="M198 175h5v-1h-4v-2l3-1h-3v-2l3-1v-1l-4 1v7Zm6-1h3c2 0 2-1 2-2l-2-2c1 0 2-1 1-2l-2-1h-3l1 7Zm1-1v-2h2l1 1-1 1h-2Zm0-3-1-2h2l2 1-2 1h-1ZM94 280h1v-6l3 5h1l1-7h-1l-1 6-2-6h-1l-1 6-2-5h-1l3 7Zm8-1 4-1h-4v-3h3v-1l-3 1v-3h3v-1l-4 1 1 7Zm6-1h2c2 0 3-1 2-2l-1-2 1-2c0-1-1-2-3-1h-2l1 7Zm0-1v-2l2-1 2 2-2 1h-2Zm0-3v-2l1-1 2 1-1 2h-2Zm-21-11h1v-6l3 5h1l1-7h-1l-1 6-2-6h-1l-1 6-2-5h-1l3 7Zm8-1 4-1h-4v-2l3-1v-1l-3 1v-3h3v-1l-4 1 1 7Zm6-1h2c2 0 3-1 2-2l-1-2 1-2c0-1-1-2-3-1h-2l1 7Zm0-1v-2h2c1-1 1 0 2 1l-2 1h-2Zm0-3v-2l1-1 2 1-1 2h-2Zm3-13 1-6 3 5h1l1-7h-1l-1 6-2-6h-1l-1 7-2-6h-1l3 7Zm8-1 4-1h-4v-2l3-1v-1l-3 1v-3h3v-1l-4 1 1 7Zm6-1h2c2 0 2-1 2-2l-1-2 1-2c0-1-1-2-3-1h-2l1 7Zm0-1v-2h2c1-1 1 0 2 1l-2 1h-2Zm0-3v-2l1-1 2 1-1 2h-2Zm-62-39h1v-6h1l2 6 1-1 1-7h-1l-1 6-2-6-1 1-1 6-2-6h-1l3 7Zm8-1 4-1h-3l-1-2 4-1h-4v-2l3-1v-1l-4 1 1 7Zm6-1h2c2 0 3-1 2-2l-1-2 1-2-3-1h-2l1 7Zm0-1v-2h2l2 1-2 1h-2Zm0-3v-2h1c1-1 2 0 2 1l-1 1h-2Zm113-25h1l1-6 2 6 1-1 1-7-1 6-3-5h-1v6l-3-6 2 7Zm8-1h5v-1h-4v-2l3-1h-3v-2l3-1v-1l-4 1v7Zm6-1h3c2 0 2-1 2-2l-2-2 1-1c0-2-1-2-2-2h-3l1 7Zm1 0v-3h2l1 1-1 1-2 1Zm0-4-1-2h2l2 1-2 1h-1Zm-33-3h1l1-6 3 6 2-8h-1l-1 6-2-5h-1l-1 6-3-6 2 7Zm8-1h5v-1h-4v-2l3-1h-3v-2l3-1v-1l-4 1v7Zm6-1h3c2 0 2-1 2-2l-1-2h-1l1-1c0-2 0-2-2-2h-2v7Zm1 0v-3h2l1 1-1 1-2 1Zm0-4-1-2h2l2 1-2 1h-1ZM60 262h1v-6h1l2 5h1l1-7h-1l-1 6-2-6h-1l-1 6-2-5h-1l3 7Zm8-1 4-1h-3l-1-2 4-1-1-1-3 1v-3h3v-1l-4 1 1 7Zm6-1h2c2 0 3-1 2-2l-1-2 1-2c0-1-1-2-3-1h-2l1 7Zm0-1v-2h2c1-1 2 0 2 1l-2 1h-2Zm0-3v-2l1-1 2 1-1 2h-2Zm-12-10h1v-6h1l2 5h1l1-7h-1l-1 6-2-6h-1l-1 7-2-6h-1l3 7Zm8-1 4-1h-3l-1-2 4-1-1-1-3 1v-3h3v-1l-4 1 1 7Zm6-1h2c2 0 3-1 2-2l-1-2 1-2c0-1-1-2-3-1h-2l1 7Zm0-1v-2h2c1-1 2 0 2 1l-2 1h-2Zm0-3v-2l1-1 2 1-1 2h-2Zm3-13h1v-6l3 5h1l1-7h-1l-1 6-2-6-1 1-1 6-2-6h-1l3 7Zm8-1 4-1h-3l-1-2 3-1v-1l-3 1v-3h3v-1l-4 1 1 7Zm6-1h2c2 0 3-1 2-2l-1-2 1-2-3-1h-2l1 7Zm0-1v-2h2l2 1-2 1h-2Zm0-3v-2l1-1 2 1-1 2h-2Zm-62-39h1l1-6 2 6 1-1 1-7h-1l-1 6-2-5h-1l-1 6-2-6h-1l3 7Zm8-1h4v-1h-3l-1-2 4-1h-4v-2l3-1v-1l-4 1 1 7Zm6-1h2c2 0 3-1 3-2l-2-2 1-2-3-1h-2l1 7Zm1-1-1-2h2l2 1-2 1h-1Zm-1-3v-2h2l1 1-1 1h-2Z"/><path fill="#1D1D1D" d="M169 166h1l1-6 3 6 2-8h-1l-1 6-2-5h-1l-1 6-3-6 2 7Zm8-1h5v-1h-4v-2l3-1h-3v-2l3-1v-1l-4 1v7Zm6-1h3c2 0 2-1 2-2l-2-2 1-1c0-2 0-2-2-2h-2v7Zm1 0v-3h2l1 1-1 1-2 1Zm0-4-1-2h2l2 1-2 1h-1Zm-37-1h1l1-6 3 6 2-8h-1l-1 6-2-5h-1l-1 6-3-6 2 7Zm9-1h4v-1h-4v-2l3-1h-3v-2l3-1v-1l-4 1 1 7Zm5-1h3c2 0 2-1 2-2l-1-2 1-1c-1-2-1-2-3-2h-2v7Zm1 0v-3h2l1 1-1 1-2 1Zm0-4v-2h1l2 1-2 1h-1Zm35 83h1l1-6 2 5h1l1-7-1 6-3-6h-1v7l-3-6h-1l3 7Zm8-1 5-1h-4v-2l3-1v-1l-3 1-1-3h4v-1l-4 1v7Zm6-1h3c2 0 2-1 2-2l-2-2c1 0 2-1 1-2l-2-1h-3l1 7Zm1-1v-2h2c1-1 1 0 1 1l-1 1h-2Zm0-3-1-2 2-1 2 1-2 2h-1ZM96 266h1v-6l3 5h1l1-7h-1l-1 6-2-6h-1l-1 6-2-5h-1l3 7Zm8-1 4-1h-4v-2l3-1v-1l-3 1v-3h3v-1l-4 1 1 7Zm6-1h2c2 0 3-1 2-2l-1-2 1-2c0-1-1-2-3-1h-2l1 7Zm0-1v-2h2c1-1 1 0 2 1l-2 1h-2Zm0-3v-2l1-1 2 1-1 2h-2Zm-29 0h1v-6l3 5h1l1-7h-1l-1 6-2-6h-1l-1 6-2-5h-1l3 7Zm8-1 4-1h-3l-1-2 3-1v-1l-3 1v-3h3v-1l-4 1 1 7Zm6-1h2c2 0 3-1 2-2l-1-2 1-2c0-1-1-2-3-1h-2l1 7Zm0-1v-2h2c1-1 1 0 2 1l-2 1h-2Zm0-3v-2l1-1 2 1-1 2h-2Zm141-20h1l1-6 2 5h1l1-7h-1v6l-3-6-1 1v6h-1l-2-6h-1l3 7Zm8-1 5-1h-4v-2l3-1v-1l-3 1-1-3h4v-1l-5 1 1 7Zm6-1h3c2 0 2-1 2-2l-2-2 1-2-2-1h-3l1 7Zm1-1v-2h1c1-1 2 0 2 1l-1 1h-2Zm0-3-1-2 2-1 1 1c1 1 0 2-1 2h-1Zm-40-21h1l1-6 2 6 1-1 1-7-1 6-3-6-1 1v6l-3-6h-1l3 7Zm8-1 5-1h-4v-2l3-1h-3l-1-3h4v-1l-5 1 1 7Zm6-1h3c2 0 2-1 2-2l-2-2 1-2-2-1h-3l1 7Zm1-1v-2h2l1 1-1 1h-2Zm0-3-1-2h2c1-1 1 0 2 1l-2 1h-1Zm-26 15h1l1-6 2 5h1l1-7-1 6-3-6-1 1v6l-3-6h-1l3 7Zm8-1 5-1h-4v-2l3-1v-1l-3 1-1-3h4v-1l-4 1v7Zm6-1h3c2 0 2-1 2-2l-2-2 1-2-2-1h-3l1 7Zm1-1v-2h2l1 1-1 1h-2Zm0-3-1-2h4l-2 2h-1ZM99 246l1-6 3 5h1l1-7h-1l-1 6-2-6h-1l-1 7-2-6h-1l3 7Zm8-1 4-1h-4v-2l3-1v-1l-3 1v-3h3v-1l-4 1 1 7Zm6-1h2c2 0 2-1 2-2l-1-2 1-2c0-1-1-2-3-1h-2l1 7Zm0-1v-2h2c1-1 1 0 2 1l-2 1h-2Zm0-3v-2l1-1 2 1-1 2h-2Zm-32-16h1v-6l3 5h1l1-7h-1l-1 6-2-6-1 1-1 6-2-6h-1l3 7Zm8-1 4-1h-3l-1-2 3-1v-1l-3 1v-3h3v-1l-4 1 1 7Zm6-1h2c2 0 3-1 2-2l-1-2 1-2-3-1h-2l1 7Zm0-1v-2h2l2 1-2 1h-2Zm0-3v-2h3l-1 2h-2Zm-2 17h1v-6l3 5h1l1-7h-1l-1 6-2-6-1 1-1 6-2-6h-1l3 7Zm8-1 4-1h-4v-2l3-1v-1l-3 1v-3h3v-1l-4 1 1 7Zm6-1h2c2 0 3-1 2-2l-1-2 1-2-3-1h-2l1 7Zm0-1v-2h2c1-1 1 0 2 1l-2 1h-2Zm0-3v-2l1-1 2 1-1 2h-2Zm-36 28h1v-6h1l2 5h1l1-7h-1l-1 6-2-6h-1l-1 6-2-5h-1l3 7Z"/><path fill="#1D1D1D" d="m79 256 4-1h-3l-1-2 3-1v-1l-3 1v-3h3v-1l-4 1 1 7Zm6-1h2c2 0 3-1 2-2l-1-2 1-2c0-1-1-2-3-1h-2l1 7Zm0-1v-2h2c1-1 2 0 2 1l-2 1h-2Zm0-3v-2l1-1 2 1-1 2h-2Zm-31-20h1v-6h1l2 5h1l1-7h-1l-1 6-2-6-1 1-1 6-2-6h-1l3 7Zm8-1 4-1h-3l-1-2 4-1-1-1-3 1v-3h3v-1l-4 1 1 7Zm6-1h2c2 0 3-1 2-2l-1-2 1-2-3-1h-2l1 7Zm0-1v-2h2l2 1-2 1h-2Zm0-3v-2l1-1 2 1-1 2h-2Zm34 28 1-6 3 5h1l1-7h-1l-1 6-2-6h-1l-1 6v1l-2-6h-1l3 7Zm8-1 4-1h-4v-2l3-1v-1l-3 1v-3h3v-1l-4 1 1 7Zm6-1h2c2 0 2-1 2-2l-1-2 1-2c0-1-1-2-3-1h-2l1 7Zm0-1v-2h2c1-1 1 0 2 1l-2 1h-2Zm0-3v-2l1-1 2 1-1 2h-2Zm-44-33h1v-6h1l2 5h1l1-7h-1l-1 6-2-6-1 1-1 6-2-6h-1l3 7Zm8-1 4-1h-3l-1-2 3-1v-1l-3 1v-3h3v-1l-4 1 1 7Zm6-1h2c2 0 3-1 2-2l-1-2 1-2-3-1h-2l1 7Zm0-1v-2h2l2 1-2 1h-2Zm0-3v-2h3l-1 2h-2Zm-42 6h1l1-6 2 5h1l1-7h-1l-1 6-2-6-1 1-1 6-2-6h-1l3 7Zm8-1 4-1h-3l-1-2 4-1-1-1-3 1v-3h3v-1l-4 1 1 7Zm6-1h2c2 0 3-1 3-2l-2-2 1-2-3-1h-2l1 7Zm1-1-1-2h2l2 1-2 1h-1Zm-1-3v-2h3l-1 2h-2Zm-36 6h1l1-6 2 5h1l1-7h-1l-1 6-2-6-1 1-1 6-2-6h-1l3 7Zm8-1 4-1h-3l-1-2 4-1v-1l-4 1v-3h3v-1l-4 1 1 7Zm6-1h2c2 0 3-1 3-2l-2-2 1-2-3-1h-2l1 7Zm1-1-1-2h2l2 1-2 1h-1Zm-1-3v-2h3l-1 2h-2Zm-15-5h1l1-6 2 6 1-1 1-7h-1l-1 6-2-6-1 1-1 6-2-6h-1l3 7Zm8-1 4-1h-3l-1-2 4-1h-4v-3h3v-1l-4 1 1 7Zm6-1h2c2 0 3-1 3-2l-2-2 1-2-3-1h-2l1 7Zm1-1-1-2h2l2 1-2 1h-1Zm-1-3v-2h2l1 1-1 1h-2Zm-30 0h1l1-6 2 6 1-1 1-7h-1l-1 6-2-6-1 1-1 6-2-6H2l3 7Zm8-1 4-1h-3l-1-2 4-1h-4v-2l3-1v-1l-4 1 1 7Zm6-1h2c2 0 3-1 3-2l-2-2 1-2-3-1h-2l1 7Zm1-1-1-2h2l2 1-2 1h-1Zm-1-3v-2h2c1-1 1 0 1 1l-1 1h-2Z"/><path fill="#1D1D1D" d="M16 216h1l1-6 2 5h1l1-7h-1l-1 6-2-6-1 1-1 6-2-6h-1l3 7Zm8-1 4-1h-3l-1-2 4-1v-1l-4 1v-3h3v-1l-4 1 1 7Zm6-1h2c2 0 3-1 3-2l-2-2 1-2-3-1h-2l1 7Zm1-1-1-2h2l2 1-2 1h-1Zm-1-3v-2h3l-1 2h-2Zm-17-3h1l1-6 2 6 1-1 1-7h-1l-1 6-2-6-1 1-1 6-2-6h-1l3 7Zm8-1 4-1h-3l-1-2 4-1h-4v-3h3v-1l-4 1 1 7Zm6-1h2c2 0 3-1 3-2l-2-2 1-2-3-1h-2l1 7Zm1-1-1-2h2l2 1-2 1h-1Zm-1-3v-2h2c1-1 1 0 1 1l-1 1h-2Zm-9 27h1l1-6 2 5h1l1-7h-1l-1 6-2-6-1 1-1 6-2-6h-1l3 7Zm8-1 4-1h-3l-1-2 4-1v-1l-4 1v-3h3v-1l-4 1 1 7Zm6-1h2c2 0 3-1 3-2l-2-2 1-2-3-1h-2l1 7Zm1-1-1-2h2l2 1-2 1h-1Zm-1-3v-2l2-1 1 1-1 2h-2Zm14-30h1l1-6 2 6 1-1 1-7h-1l-1 6-2-6-1 1-1 6-2-6h-1l3 7Zm8-1h4v-1h-3l-1-2 4-1h-4v-2l3-1v-1l-4 1 1 7Zm6-1h2c2 0 3-1 3-2l-2-2 1-2-3-1h-2l1 7Zm1-1-1-2h2l2 1-2 1h-1Zm-1-3v-2h1c1-1 2 0 2 1l-1 1h-2Zm-14-6h1l1-6 2 6 1-1 1-7h-1l-1 6-2-5h-1l-1 6-2-6h-1l3 7Zm8-1h4v-1h-3l-1-2 4-1h-4v-2l3-1v-1l-4 1 1 7Zm6-1h2c2 0 3-1 3-2l-2-2 1-2-3-1h-2l1 7Zm1-1-1-2h2l2 1-2 1h-1Zm-1-3v-2h1l2 1-1 1h-2Zm166 58h1l1-6 2 5h1l1-7h-1l-1 6-2-6-1 1-1 6-2-6h-1l3 7Zm8-1 4-1h-3l-1-2 4-1v-1l-4 1v-3h4l-1-1-4 1 1 7Zm6-1h2c2 0 3-1 3-2l-2-2 1-2-2-1h-3l1 7Zm1-1-1-2h2c1-1 2 0 2 1l-2 1h-1Zm-1-3v-2l2-1 1 1-1 2h-2Zm5 17h1l1-6 2 5h1l1-7h-1v6l-3-6h-1v7h-1l-2-6h-1l3 7Zm8-1 5-1h-4v-2l3-1v-1l-3 1-1-3h4v-1l-5 1 1 7Zm6-1h3l2-2-2-2 1-2c0-1-1-2-2-1h-3l1 7Zm1-1v-2h1c1-1 2 0 2 1l-1 1h-2Zm0-3-1-2 2-1 1 1c1 1 0 2-1 2h-1Zm-5-5h1l1-6 2 5h1l1-7h-1v6l-3-6-1 1-1 6-2-6h-1l3 7Zm8-1 5-1h-4v-2l3-1v-1l-3 1-1-3h4v-1l-5 1 1 7Zm6-1h3l2-2-2-2 1-2-2-1h-3l1 7Zm1-1v-2h1c1-1 2 0 2 1l-1 1h-2Zm0-3-1-2 2-1 1 1-1 2h-1Z"/><path fill="#1D1D1D" d="M243 227h1l1-6 2 5h1l1-7h-1v6l-3-6-1 1v6h-1l-2-6h-1l3 7Zm8-1 5-1h-4v-2l3-1v-1l-3 1-1-3h4v-1l-5 1 1 7Zm6-1h3l2-2-2-2 1-2-2-1h-3l1 7Zm1-1v-2h1l2 1-1 1h-2Zm0-3-1-2 2-1 1 1c1 1 0 2-1 2h-1Zm-14-6h1l1-6 2 5h1l1-7h-1v6l-3-6-1 1v6h-1l-2-6h-1l3 7Zm8-1 5-1h-4v-2l3-1v-1l-3 1-1-3h4v-1l-5 1 1 7Zm6-1h3l2-2-2-2 1-2-2-1h-3l1 7Zm1-1v-2h1l2 1-1 1h-2Zm0-3-1-2h3c1 1 0 2-1 2h-1Zm-24 2h1l1-6 2 5h1l1-7h-1v6l-3-6-1 1v6h-1l-2-6h-1l3 7Z"/><path fill="#1D1D1D" d="m243 210 5-1h-4v-2l3-1h-3l-1-3h4v-1l-5 1 1 7Zm6-1h3c2 0 2-1 2-2l-2-2 1-2-2-1h-3l1 7Zm1-1v-2h1l2 1-1 1h-2Zm0-3-1-2h2c1-1 1 0 1 1l-1 1h-1Zm-15-6h1l1-6 2 6 1-1 1-7h-1v6l-3-6-1 1v6h-1l-2-6h-1l3 7Zm8-1 5-1h-4v-2l3-1h-3l-1-2 4-1v-1l-5 1 1 7Zm6-1h3c2 0 2-1 2-2l-2-2 1-2-2-1h-3l1 7Zm1-1v-2h1l2 1-1 1h-2Zm0-3-1-2h2c1-1 1 0 1 1l-1 1h-1Z"/><path fill="#1D1D1D" d="M231 193h1l1-6 2 6 1-1 1-7h-1v6l-3-6-1 1v6h-1l-2-6h-1l3 7Zm8-1h5v-1h-4v-2l3-1h-3l-1-2 4-1v-1l-5 1 1 7Zm6-1h3c2 0 2-1 2-2l-2-2 1-2-2-1h-3l1 7Zm1-1v-2h1l2 1-1 1h-2Zm0-3-1-2h2c1-1 1 0 1 1l-1 1h-1Z"/><path fill="#1D1D1D" d="M228 186h1l1-6 2 6 1-1 1-7h-1v6l-3-5h-1v6h-1l-2-6h-1l3 7Zm8-1h5v-1h-4v-2l3-1h-3l-1-2 4-1v-1l-5 1 1 7Zm6-1h3c2 0 2-1 2-2l-2-2 1-2-2-1h-3l1 7Zm1-1v-2h1l2 1-1 1h-2Zm0-3-1-2h2c1-1 1 0 1 1l-1 1h-1Zm-20-2h1l1-6 2 6 1-1 1-7h-1v6l-3-5h-1v6l-3-6h-1l3 7Zm8-1h5v-1h-4v-2l3-1h-3l-1-2 4-1v-1l-5 1 1 7Zm6-1h3c2 0 2-1 2-2l-2-2 1-2-2-1h-3l1 7Zm1-1v-2h1l2 1-1 1h-2Zm0-3-1-2h2l1 1-1 1h-1Zm-23-3h1l1-6 2 6 1-1 1-7h-1v6l-3-5h-1v6l-3-6h-1l3 7Zm8-1h5v-1h-4v-2l3-1h-3l-1-2 4-1v-1l-5 1 1 7Zm6-1h3c2 0 2-1 2-2l-2-2 1-1c0-2-1-2-2-2h-3l1 7Zm1 0v-3h2l1 1-1 1-2 1Zm0-4-1-2h2l2 1-2 1h-1Zm35 61h1l1-6 2 5h1l1-7h-1v6l-3-6-1 1-1 6-2-6h-1l3 7Zm8-1 5-1h-4v-2l3-1v-1l-3 1-1-3h4v-1l-5 1 1 7Zm6-1h3l2-2-2-2 1-2-2-1h-3l1 7Zm1-1v-2h1l2 1-1 1h-2Zm0-3-1-2h3l-1 2h-1Zm-8-10h1l1-6 2 6 1-1 1-7h-1v6h-1l-2-6-1 1-1 6-2-6h-1l3 7Zm8-1 5-1h-4v-2l3-1h-3l-1-3h4v-1l-5 1 1 7Zm6-1h3l2-2-2-2 1-2-2-1h-3l1 7Zm1-1v-2h1l2 1-1 1h-2Zm-1-3v-2h2c1-1 1 0 1 1l-1 1h-2Zm-31 40h1l1-6 2 5h1l1-7h-1v6l-3-6h-1l-1 7-2-6h-1l3 7Zm8-1 5-1h-4v-2l3-1v-1l-3 1-1-3h4v-1l-5 1 1 7Zm6-1h3l2-2-2-2 1-2c0-1-1-2-2-1h-3l1 7Zm1-1v-2h1c1-1 2 0 2 1l-1 1h-2Zm0-3-1-2 2-1 1 1-1 2h-1Zm18-92h1l1-6 2 6h1l1-8h-1v6h-1l-2-5h-1l-1 6-2-6h-1l3 7Zm8-1h5l-1-1h-3v-2l3-1h-3l-1-2 4-1v-1l-5 1 1 7Zm6-1h3l2-2-2-2 1-1-2-2h-3l1 7Zm1 0v-3h1l2 1-1 1-2 1Zm-1-4v-2h2l1 1-1 1h-2Zm-30-54h1l1-6 2 6h1l1-8h-1v6h-1l-2-5h-1l-1 6-2-6h-1l3 7Zm8-1h5v-1h-4v-2h3v-1h-3l-1-2 4-1h-5l1 7Zm6 0 3-1 2-2-2-2 1-1-2-2h-3l1 8Zm1-1v-3h1l2 1-1 2h-2Zm-1-4v-2h2l1 1-1 1h-2Zm-45-35h1l1-6 2 6h1l1-8-1 1v6l-3-6h-1v6h-1l-2-6-1 1 3 6Zm8-1h5v-1l-4 1v-3h3v-1h-3l-1-2 4-1h-5l1 7Zm6 0 3-1c2 0 2-1 2-2l-2-1 1-2-2-2-3 1 1 7Zm1-1v-3h1l2 1-1 2h-2Zm0-3-1-3h2l1 1c1 1 0 1-1 1l-1 1Zm-40 10h1l1-6 2 6h1l1-8h-1v7l-3-6h-1v6l-3-6h-1l3 7Zm8-1h5v-1l-4 1v-3h3v-1h-3l-1-2 4-1h-5l1 7Zm6 0 3-1c2 0 2-1 2-2l-2-1v-1l1-1-2-2-3 1 1 7Zm1-1v-3h2l1 1-1 2h-2Zm0-3-1-3h2l2 1-2 1-1 1Zm-53 56h1l1-6 3 6 1-8-1 6-3-5-1 6-3-6 2 7Zm8-1h5v-1h-4v-2h3v-1h-3v-2l3-1h-4v7Zm6 0 3-1c2 0 2-1 2-2l-2-2c1 0 2 0 1-1 0-1 0-2-2-2h-3l1 8Zm1-1v-3h2l1 1-1 1-2 1Zm0-4-1-2h2l2 1-2 1h-1Zm-35 24h1l1-6 3 6 2-8h-1l-1 6-2-5h-1l-1 6-3-6 2 7Zm9-1h4v-1h-4v-2h3v-1h-3v-2l3-1h-4l1 7Zm5 0 3-1c2 0 2-1 2-2l-1-2v-1c0-1 0-2-2-2h-2v8Zm1-1v-3h2l1 1-1 1-2 1Zm0-4v-2h1l2 1-2 1h-1Zm17-57h1l1-6 2 6h1l1-8-1 7-3-6h-1v6l-3-6h-1l3 7Zm8-1h5v-1l-4 1v-3h3v-1h-3v-2l3-1h-4v7Zm6 0 3-1c2 0 2-1 2-2l-2-1v-1c1 0 2 0 1-1l-2-2-3 1 1 7Zm1-1v-3h2l1 1-1 2h-2Zm0-3-1-3h2l2 1-2 1-1 1Zm50 13h1l1-6 2 6h1l1-8h-1v7l-3-6h-1l-1 6-2-6h-1l3 7Zm8-1h5v-1l-4 1v-3h3v-1h-3l-1-2 4-1h-5l1 7Zm6 0 3-1 2-2c0-1-1-2-2-1v-1l1-1-2-2h-3l1 8Zm1-1v-3h1l2 1-1 2h-2Zm0-3-1-3h2l1 1-1 1-1 1Zm-27-3h1l1-6 2 6h1l1-8h-1v7l-3-6h-1v6h-1l-2-6h-1l3 7Zm8-1h5v-1l-4 1v-3h3v-1h-3l-1-2 4-1h-5l1 7Zm6 0 3-1 2-2-2-1v-1l1-1-2-2-3 1 1 7Zm1-1v-3h1l2 1-1 2h-2Zm0-3-1-3h2l1 1c1 1 0 1-1 1l-1 1Zm-41 11h1l1-6 2 6h1l1-8h-1v7l-3-6h-1v6l-3-6h-1l3 7Zm8-1h5v-1l-4 1v-3h3v-1h-3l-1-2 4-1h-5l1 7Zm6 0 3-1c2 0 2-1 2-2s-1-2-2-1v-1l1-1-2-2h-3l1 8Zm1-1v-3h2l1 1-1 2h-2Zm0-3-1-3h2l2 1-2 1-1 1Zm-53 56h1l1-6 3 6 1-8-1 6-3-5-1 6-3-6 2 7Zm8-1h5v-1h-4v-2h3v-1h-3v-2l3-1h-4v7Zm6 0 3-1c2 0 2-1 2-2l-2-2c1 0 2 0 1-1 0-1 0-2-2-2h-3l1 8Zm1-1v-3h2l1 1-1 1-2 1Zm0-4-1-2h2l2 1-2 1h-1Zm-35 24h1l1-6 3 6 2-8h-1l-1 6-2-5h-1l-1 6-3-6 2 7Zm9-1h4v-1h-4v-2l3-1h-3v-2l3-1v-1l-4 1 1 7Zm5-1h3c2 0 2-1 2-2l-1-2v-1c0-1 0-2-2-2h-2v7Zm1 0v-3h2l1 1-1 1-2 1Zm0-4v-2h1l2 1-2 1h-1Z"/><path fill="#1D1D1D" d="M202 60h1l1-6 2 6h1l1-8-1 7-3-6h-1v6l-3-6h-1l3 7Zm8-1h5v-1l-4 1v-3h3v-1h-3l-1-2 4-1h-4v7Zm6 0 3-1c2 0 2-1 2-2s-1-2-2-1v-1l1-1-2-2h-3l1 8Zm1-1v-3h2l1 1-1 2h-2Zm0-3-1-3h2l2 1-2 1-1 1Zm-40 9h1l1-6 3 6 1-8-1 6v1l-3-6-1 6-3-6 2 7Zm8-1h5v-1l-4 1v-3h3v-1h-3v-2l3-1h-4v7Zm6 0 3-1c2 0 2-1 2-2s-1-2-2-1v-1c1 0 2 0 1-1 0-1 0-2-2-2h-3l1 8Zm1-1v-3h2l1 1-1 2h-2Zm0-3-1-3h2l2 1-2 1-1 1Zm-53 56h1l1-6 3 6h1l1-8h-1l-1 6-2-5h-1l-1 6-2-6h-1l2 7Zm9-1h4v-1h-4v-2h3v-1h-3v-2l3-1h-4l1 7Zm5 0 3-1c2 0 2-1 2-2l-1-2 1-1c-1-1-1-2-3-2h-2v8Zm1-1v-3h2l1 1-1 1-2 1Zm0-4v-2h1l2 1-2 1h-1Zm-14 16h1l1-6 3 6h1l1-8h-1l-1 6-2-5h-1l-1 6-2-6h-1l2 7Zm9-1h4v-1h-4v-2h3v-1h-3v-2l3-1h-4l1 7Zm5 0 3-1c2 0 2-1 2-2l-1-2 1-1c-1-1-1-2-3-2h-2v8Zm1-1v-3h2l1 1-1 1-2 1Zm0-4v-2h1l2 1-2 1h-1Zm-5-17h1l1-6 3 6 2-8h-1l-1 6-2-5h-1l-1 6-3-6 2 7Zm9-1h4v-1h-4v-2h3v-1h-3v-2l3-1h-4l1 7Zm5 0 3-1c2 0 2-1 2-2l-1-2 1-1c-1-1-1-2-3-2h-2v8Zm1-1v-3h2l1 1-1 1-2 1Zm0-4v-2h1l2 1-2 1h-1Zm-6 13h1l1-6 3 6 2-8h-1l-1 6-2-5h-1l-1 6-3-6 2 7Zm9-1h4v-1h-4v-2h3v-1h-3v-2l3-1h-4l1 7Zm5 0 3-1c2 0 2-1 2-2l-1-2v-1c0-1 0-2-2-2h-2v8Zm1-1v-3h2l1 1-1 1-2 1Zm0-4v-2h1l2 1-2 1h-1Zm-9-11h1l1-6 3 6 2-8h-1l-1 6-2-5h-1l-1 6-3-6 2 7Zm8-1h5v-1h-4v-2h3v-1h-3v-2l3-1h-4v7Zm6 0 3-1c2 0 2-1 2-2l-1-2h-1c1 0 2 0 1-1 0-1 0-2-2-2h-2v8Zm1-1v-3h2l1 1-1 1-2 1Zm0-4-1-2h2l2 1-2 1h-1Z"/><path fill="#1D1D1D" d="M161 87h1l1-6 3 6 2-8h-1l-1 6-2-5h-1l-1 6-3-6 2 7Zm9-1h4v-1h-4v-2h3v-1h-3v-2l3-1h-4l1 7Zm5 0 3-1c2 0 2-1 2-2l-1-2v-1c0-1 0-2-2-2h-2v8Zm1-1v-3h2l1 1-1 2h-2Zm0-4-1-2h2l2 1-2 1h-1Z"/><path fill="#1D1D1D" d="M177 81h1l1-6 3 6 1-8-1 6-3-5-1 6-3-6 2 7Zm8-1h5v-1h-4v-2h3v-1h-3v-2l3-1h-4v7Zm6 0 3-1c2 0 2-1 2-2l-2-2c1 0 2 0 1-1 0-1 0-2-2-2h-3l1 8Zm1-1v-3h2l1 1-1 2h-2Zm0-4-1-2h2l2 1-2 1h-1Zm-22-1h1l1-6 3 6 2-8h-1l-1 6-2-5h-1l-1 6-3-6 2 7Zm8-1h5v-1h-4v-2h3v-1h-3v-2l3-1h-4v7Zm6 0 3-1c2 0 2-1 2-2l-2-2c1 0 2 0 1-1 0-1 0-2-2-2h-2v8Zm1-1v-3h2l1 1-1 2h-2Zm0-4-1-2h2l2 1-2 1h-1Zm-29 6h1l1-6 3 6 2-8h-1l-1 6-2-5h-1l-1 6-3-6 2 7Z"/><path fill="#1D1D1D" d="M165 73h4v-1h-4v-2h3v-1h-3v-2l3-1h-4l1 7Zm5 0 3-1c2 0 2-1 2-2l-1-2 1-1c-1-1-1-2-3-2h-2v8Zm1-1v-3h2l1 1-1 2h-2Zm0-4v-2h1l2 1-2 1h-1Zm-12-6h1l1-6 3 6 2-8h-1l-1 6v1l-2-6h-1l-1 6-3-6 2 7Zm9-1h4v-1l-4 1v-3h3v-1h-3v-2l3-1h-4l1 7Zm5 0 3-1c2 0 2-1 2-2l-1-1v-2c0-1 0-2-2-2h-2v8Zm1-1v-3h2l1 1-1 2h-2Zm0-3v-3h1l2 1-2 1-1 1Zm-12 42h1l1-6 3 6 2-8h-1l-1 6-2-5h-1l-1 6-3-6 2 7Zm9-1h4v-1h-4v-2h3v-1h-3v-2l3-1h-4l1 7Zm5 0 3-1c2 0 2-1 2-2l-1-2v-1c0-1 0-2-2-2h-2v8Zm1-1v-3h2l1 1-1 1-2 1Zm0-4-1-2h2l2 1-2 1h-1ZM89 30h1v-6l3 6h1l1-8-1 1-1 6-2-6h-1l-1 6-2-6-1 1 3 6Zm8-1h4v-1l-4 1v-3h3v-1h-3v-2h3v-1h-4l1 7Zm6 0 2-1c2 0 3-1 2-2l-1-1 1-2c0-1-1-2-3-2l-2 1 1 7Zm0-1v-3h2l2 1-2 2h-2Zm0-3v-3h1l2 1-1 1-2 1Zm36 81h1l1-6 3 6h1l1-8h-1l-1 6-2-5h-1l-1 6-2-6h-1l2 7Zm9-1h4v-1h-4v-2h3v-1h-3v-2l3-1h-4l1 7Zm5 0 3-1c2 0 2-1 2-2l-1-2 1-1c-1-1-1-2-3-2h-2v8Zm1-1v-3h2l1 1-1 1-2 1Zm0-4v-2h1l2 1-2 1h-1Zm-16-89 1-1 1-5V4l3 6h1l1-8-1 1-1 6-2-6h-1l-1 6-2-6-1 1 2 7Zm9-1 4-1V8l-4 1V6h3V5h-3V3h3V2h-4l1 8Zm5-1 3-1c2 0 2-1 2-2l-1-1 1-2c-1-1-1-2-3-2l-2 1v7Zm1-1V5h2l1 1c1 1 0 2-1 2h-2Zm0-3V2h1l2 1-2 1-1 1Zm34 24h1l1-6 2 6h1l1-8v1l-1 6-3-6h-1v6l-3-6-1 1 3 6Zm8-1h5v-1l-4 1v-3h3v-1h-3v-2h3v-1h-4v7Zm6 0 3-1c2 0 2-1 2-2l-2-1c1-1 2-1 1-2l-2-2-3 1 1 7Zm1-1v-3h2l1 1-1 2h-2Zm0-3-1-3h2l2 1-2 1-1 1Zm-29-7 1-1 1-6 3 6 1-8v1l-1 6-2-6h-1l-1 6-3-6v1l2 7Zm8-1 5-1v-1l-4 1v-3h3v-1h-3V9h3V8h-4v8Zm6-1 3-1c2 0 2-1 2-2l-2-1c1-1 2-1 1-2 0-1 0-2-2-2l-3 1 1 7Zm1-1v-3h2l1 1-1 2h-2Zm0-3-1-3h2l2 1-2 1-1 1Zm-23-1 1-1 1-5 3 5 2-8-1 1-1 6-2-6h-1l-1 6-3-6v1l2 7Z"/><path fill="#1D1D1D" d="m173 9 5-1V7l-4 1V5h3V4h-3V2h3V1h-4v8Zm6-1 3-1c2 0 2-1 2-2l-1-1h-1c1-1 2-1 1-2 0-1 0-2-2-2l-2 1v7Zm1-1V4h2l1 1-1 2h-2Zm0-3-1-3h2l2 1-2 1-1 1Zm-53 111 1-6 3 6h1l1-8h-1l-1 6-2-5h-1l-1 6-2-6h-1l3 7Zm8-1h4v-1h-4v-2h3v-1h-3v-2l3-1h-4l1 7Zm6 0 2-1c2 0 2-1 2-2l-1-2 1-1c-1-1-1-2-3-2h-2l1 8Zm0-1v-3h2l1 1c1 1 0 1-1 1l-2 1Zm0-4v-2h1l2 1-1 1h-2Zm-15-89v-1l1-6 3 6h1l1-8-1 1-1 6-2-6h-1l-1 6-2-6-1 1 3 7Zm8-1 4-1v-1l-4 1v-3h3v-1h-3v-2h3v-1h-4l1 8Zm6-1 2-1c2 0 2-1 2-2l-1-1 1-2c-1-1-1-2-3-2l-2 1 1 7Zm0-1v-3h2l1 1c1 1 0 2-1 2h-2Zm0-3v-3h1l2 1-1 1-2 1Zm-38 21 1-6 3 6h1l1-8-1 1-1 6-2-6h-1l-1 6-2-6-1 1 3 6Zm8-1h4v-1l-4 1v-3h3v-1h-3v-2h3v-1h-4l1 7Zm6 0 2-1c2 0 2-1 2-2l-1-1 1-2c0-1-1-2-3-2l-2 1 1 7Zm0-1v-3h2l2 1-2 2h-2Zm0-3v-3h1l2 1-1 1-2 1ZM81 49h1v-6l3 6h1l1-8h-1l-1 7-2-6h-1l-1 6-2-6h-1l3 7Zm8-1h4v-1l-3 1-1-3h3v-1h-3v-2l3-1h-4l1 7Zm6 0 2-1c2 0 3-1 2-2l-1-1v-1l1-1c0-1-1-2-3-2l-2 1 1 7Zm0-1v-3h2l2 1-2 2h-2Zm0-3v-3h1l2 1-1 1-2 1ZM81 34h1v-6l3 6h1l1-8-1 1-1 6-2-6h-1l-1 6-2-6-1 1 3 6Zm8-1h4v-1l-3 1-1-3h3v-1h-3v-2h3v-1h-4l1 7Z"/><path fill="#1D1D1D" d="m95 33 2-1c2 0 3-1 2-2l-1-1 1-2c0-1-1-2-3-2l-2 1 1 7Zm0-1v-3h2l2 1-2 2h-2Zm0-3v-3h1l2 1-1 1-2 1Zm-14-7 1-1v-6l3 6h1l1-8-1 1-1 6-2-6h-1l-1 6-2-6-1 1 3 7Zm8-1 4-1v-1l-3 1-1-3h3v-1h-3v-2h3v-1h-4l1 8Zm6-1 2-1c2 0 3-1 2-2l-1-1 1-2c0-1-1-2-3-2l-2 1 1 7Zm0-1v-3h2l2 1-2 2h-2Zm0-3v-3h1l2 1-1 1-2 1Zm79 22h1l1-6 3 6 1-8v1l-1 6-2-6h-1l-1 6-3-6v1l2 6Zm8-1h5v-1l-4 1v-3h3v-1h-3v-2h3v-1h-4v7Zm6 0 3-1c2 0 2-1 2-2l-2-1c1-1 2-1 1-2 0-1 0-2-2-2l-3 1 1 7Zm1-1v-3h2l1 1-1 2h-2Zm0-3-1-3h2l2 1-2 1-1 1Zm-29-7 1-1 1-6 3 6 2-8-1 1-1 6-2-6h-1l-1 6-3-6v1l2 7Zm9-2h4v-1l-4 1v-3h3v-1h-3v-2h3v-1h-4l1 7Zm5 0 3-1c2 0 2-1 2-2l-1-1v-2c0-1 0-2-2-2l-2 1v7Zm1-1v-3h2l1 1-1 2h-2Zm0-3v-3h1l2 1-2 1-1 1Zm-23-1 1-1 1-6 3 6 2-8-1 1-1 6-2-6h-1l-1 6-3-6v1l2 7Z"/><path fill="#1D1D1D" d="m161 18 4-1v-1l-4 1v-3h3v-1h-3v-2h3v-1h-4l1 8Zm5-1 3-1c2 0 2-1 2-2l-1-1 1-2c-1-1-1-2-3-2l-2 1v7Zm1-1v-3h2l1 1-1 2h-2Zm0-3v-3h1l2 1-2 1-1 1Zm-47 120 1-6 3 6h1l1-8h-1l-1 6-2-5h-1l-1 6-2-6h-1l3 7Zm8-1h4v-1h-4v-2l3-1h-3v-2l3-1v-1l-4 1 1 7Zm6-1h2c2 0 2-1 2-2l-1-2 1-1c-1-1-1-2-3-2h-2l1 7Zm0 0v-3h2l1 1c1 1 0 1-1 1l-2 1Zm0-4v-2h1l2 1-1 1h-2Zm-15-90 1-6 3 6h1l1-8-1 1-1 6-2-6h-1l-1 6-2-6-1 1 3 6Zm8-1h4v-1l-4 1v-3h3v-1h-3v-2h3v-1h-4l1 7Zm6 0 2-1c2 0 2-1 2-2l-1-1 1-2c-1-1-1-2-3-2l-2 1 1 7Zm0-1v-3h2l1 1c1 1 0 1-1 2h-2Zm0-3v-3h1l2 1-1 1-2 1Zm34 24h1l1-6 3 6 2-8h-1l-1 7-2-6h-1l-1 6-3-6 2 7Zm8-1h5v-1l-4 1v-3h3v-1h-3v-2l3-1h-4v7Zm6 0 3-1c2 0 2-1 2-2l-1-1-1-1c1 0 2 0 1-1 0-1 0-2-2-2h-2v8Zm1-1v-3h2l1 1-1 2h-2Zm0-3-1-3h2l2 1-2 1-1 1Zm-29-8h1l1-6 3 6 2-8-1 1-1 6-2-6h-1l-1 6-3-6v1l2 6Zm9-1h4v-1l-4 1v-3h3v-1h-3v-2l3-1h-4l1 7Zm5 0 3-1c2 0 2-1 2-2l-1-1 1-2c-1-1-1-2-3-2l-2 1v7Zm1-1v-3h2l1 1-1 2h-2Zm0-3v-3h1l2 1-2 1-1 1Zm-23-2h1l1-6 3 6 2-8-1 1-1 6-2-6h-1l-1 6-3-6v1l2 6Zm9-1h4v-1l-4 1v-3h3v-1h-3v-2h3v-1h-4l1 7Zm5 0 3-1c2 0 2-1 2-2l-1-1 1-2c-1-1-1-2-3-2l-2 1v7Zm1-1v-3h2l1 1-1 2h-2Zm0-3v-3h1l2 1-2 1-1 1Zm28 43h1l1-6 2 6h1l1-8-1 6-3-5h-1v6l-3-6h-1l3 7Zm8-1h5v-1h-4v-2h3v-1h-3v-2l3-1h-4v7Zm6 0 3-1c2 0 2-1 2-2l-2-2c1 0 2 0 1-1l-2-2h-3l1 8Zm1-1v-3h2l1 1-1 2h-2Zm0-4-1-2h2l2 1-2 1h-1Z"/><path fill="#1D1D1D" d="M194 68h1l1-6 2 6h1l1-8-1 6-3-5h-1v6l-3-6h-1l3 7Zm8-1h5v-1l-4 1v-3h3v-1h-3l-1-2 4-1h-4v7Zm6 0 3-1c2 0 2-1 2-2s-1-2-2-1v-1c1 0 2 0 1-1l-2-2h-3l1 8Zm1-1v-3h2l1 1-1 2h-2Zm0-3-1-3h2l2 1-2 1-1 1Zm-53 56h1l1-6 3 6 2-8h-1l-1 6-2-5h-1l-1 6-3-6 2 7Zm9-1h4v-1h-4v-2h3v-1h-3v-2l3-1h-4l1 7Zm5 0 3-1c2 0 2-1 2-2l-1-2 1-1c-1-1-1-2-3-2h-2v8Zm1-1v-3h2l1 1-1 1-2 1Zm0-4v-2h1l2 1-2 1h-1Zm-16-89 1-1 1-6 3 6 2-8-1 1-1 6-2-6h-1l-1 6-3-6v1l2 7Zm9-1 4-1v-1l-4 1v-3h3v-1h-3v-2h3v-1h-4l1 8Zm5-1 3-1c2 0 2-1 2-2l-1-1 1-2c-1-1-1-2-3-2l-2 1v7Zm1-1v-3h2l1 1-1 2h-2Zm0-3v-3h1l2 1-2 1-1 1Zm34 24h1l1-6 2 6h1l1-8v1l-1 6-3-6h-1v6l-3-6-1 1 3 6Zm8-1h5v-1l-4 1v-3h3v-1h-3l-1-2 4-1h-5l1 7Zm6 0 3-1c2 0 2-1 2-2l-2-1 1-2-2-2-3 1 1 7Zm1-1v-3h2l1 1-1 2h-2Zm0-3-1-3h2l2 1-2 1-1 1Zm-10-11h1l1-6 2 6h1l1-8v1l-1 6-3-6h-1v6l-3-6-1 1 3 6Zm8-1h5v-1l-4 1v-3h3v-1h-3l-1-2h4v-1h-5l1 7Zm6 0 3-1c2 0 2-1 2-2l-2-1 1-2-2-2-3 1 1 7Zm1-1v-3h2l1 1-1 2h-2Zm0-3-1-3h2l2 1-2 1-1 1Zm-30-4 1-1 1-6 2 6h1l1-8v1l-1 6-3-6h-1v6l-3-6-1 1 3 7Zm8-1 5-1v-1l-4 1v-3h3v-1h-3l-1-2h4V8h-4v8Zm6-1 3-1c2 0 2-1 2-2l-2-1c1-1 2-1 1-2l-2-2-3 1 1 7Zm1-1v-3h2l1 1-1 2h-2Zm0-3-1-3h2l2 1-2 1-1 1Zm-30 2 1-1 1-6 3 6 1-8v1l-1 6-3-6-1 6-3-6v1l2 7Z"/><path fill="#1D1D1D" d="m187 12 5-1v-1l-4 1V8h3V7h-3V5h3V4h-4v8Zm6-1 3-1c2 0 2-1 2-2l-2-1c1-1 2-1 1-2 0-1 0-2-2-2l-3 1 1 7Zm1-1V7h2l1 1-1 2h-2Zm0-3-1-3h2l2 1-2 1-1 1Zm-2 30h1l1-6 2 6h1l1-8v1l-1 6-3-6h-1v6l-3-6-1 1 3 6Zm8-1h5v-1l-4 1v-3h3v-1h-3l-1-2h4v-1h-4v7Zm6 0 3-1c2 0 2-1 2-2l-2-1c1-1 2-1 1-2l-2-2-3 1 1 7Zm1-1v-3h2l1 1-1 2h-2Zm0-3-1-3h2l2 1-2 1-1 1Zm5-1h1l1-6 2 6h1l1-8v1l-1 6-3-6h-1v6l-3-6-1 1 3 6Zm8-1h5v-1l-4 1v-3h3v-1h-3l-1-2h4v-1h-5l1 7Zm6 0 3-1c2 0 2-1 2-2l-2-1 1-2-2-2-3 1 1 7Zm1-1v-3h2l1 1-1 2h-2Zm0-3-1-3h2l2 1-2 1-1 1Zm-59 21h1l1-6 3 6 2-8h-1l-1 7-2-6h-1l-1 6-3-6 2 7Zm8-1h5v-1l-4 1v-3h3v-1h-3v-2l3-1h-4v7Zm6 0 3-1c2 0 2-1 2-2l-2-1v-1c1 0 2 0 1-1 0-1 0-2-2-2l-2 1v7Zm1-1v-3h2l1 1-1 2h-2Zm0-3-1-3h2l2 1-2 1-1 1Zm7-13h1l1-6 2 6h1l1-8v1l-1 6-3-6h-1v6l-3-6-1 1 3 6Zm8-1h5v-1l-4 1v-3h3v-1h-3v-2h3v-1h-4v7Zm6 0 3-1c2 0 2-1 2-2l-2-1c1-1 2-1 1-2l-2-2-3 1 1 7Zm1-1v-3h2l1 1-1 2h-2Zm0-3-1-3h2l2 1-2 1-1 1Zm-23-1 1-1 1-6 2 6h1l1-8v1l-1 6-3-6h-1v6l-3-6v1l2 7Z"/><path fill="#1D1D1D" d="m190 22 5-1v-1l-4 1v-3h3v-1h-3v-2h3v-1h-4v8Zm6-1 3-1c2 0 2-1 2-2l-2-1c1-1 2-1 1-2l-2-2-3 1 1 7Zm1-1v-3h2l1 1-1 2h-2Zm0-3-1-3h2l2 1-2 1-1 1ZM60 223h1v-6h1l2 5h1l1-7h-1l-1 6-2-6-1 1-1 6-2-6h-1l3 7Zm8-1 4-1h-3l-1-2 4-1-1-1-3 1v-3h3v-1l-4 1 1 7Zm6-1h2c2 0 3-1 2-2l-1-2 1-2-3-1h-2l1 7Zm0-1v-2h2l2 1-2 1h-2Zm0-3v-2h3l-1 2h-2Zm-21-11h1v-6h1l2 6 1-1 1-7h-1l-1 6-2-6-1 1-1 6-2-6h-1l3 7Zm8-1 4-1h-3l-1-2 4-1h-4v-3h3v-1l-4 1 1 7Zm6-1h2c2 0 3-1 2-2l-1-2 1-2-3-1h-2l1 7Zm0-1v-2h2l2 1-2 1h-2Zm0-3v-2h1c1-1 2 0 2 1l-1 1h-2Zm3-13h1v-6h1l2 6 1-1 1-7h-1l-1 6-2-5h-1l-1 6-2-6h-1l3 7Zm8-1h4v-1h-3l-1-2 3-1h-3v-2l3-1v-1l-4 1 1 7Zm6-1h2c2 0 3-1 2-2l-1-2 1-2-3-1h-2l1 7Zm0-1v-2h2l2 1-2 1h-2Zm0-3v-2h1c1-1 2 0 2 1l-1 1h-2Zm-62-39h1l1-6 2 6h1l1-8h-1l-1 6-2-5h-1l-1 6-2-6h-1l3 7Zm8-1h4v-1h-3l-1-2 4-1h-4v-2l3-1v-1l-4 1 1 7Zm6-1h2c2 0 3-1 3-2l-2-2 1-1c0-1-1-2-3-2h-2l1 7Zm1 0-1-3h2l2 1-2 1-1 1Zm-1-4v-2h2l1 1-1 1h-2Zm100 1h1l1-6 3 6h1l1-8h-1l-1 6-2-5h-1l-1 6-2-6h-1l2 7Zm9-1h4v-1h-4v-2l3-1h-3v-2l3-1v-1l-4 1 1 7Zm5-1h3c2 0 2-1 2-2l-1-2 1-1c-1-1-1-2-3-2h-2v7Zm1 0v-3h2l1 1c1 1 0 1-1 1l-2 1Zm0-4v-2h1l2 1-2 1h-1ZM40 241h1l1-6 2 5h1l1-7h-1l-1 6-2-6h-1l-1 7-2-6h-1l3 7Zm8-1 4-1h-3l-1-2 4-1-1-1-3 1v-3h3v-1l-4 1 1 7Zm6-1h2c2 0 3-1 3-2l-2-2 1-2-3-1h-2l1 7Zm1-1-1-2h2c1-1 2 0 2 1l-2 1h-1Zm-1-3v-2l1-1 2 1-1 2h-2Zm-21-11h1l1-6 2 5h1l1-7h-1l-1 6-2-6-1 1-1 6-2-6h-1l3 7Zm8-1 4-1h-3l-1-2 4-1-1-1-3 1v-3h3v-1l-4 1 1 7Zm6-1h2c2 0 3-1 3-2l-2-2 1-2-3-1h-2l1 7Zm1-1-1-2h2l2 1-2 1h-1Zm-1-3v-2h3l-1 2h-2Z"/><path fill="#1D1D1D" d="M50 205h1l1-6 2 6 1-1 1-7h-1l-1 6-2-6-1 1-1 6-2-6h-1l3 7Zm8-1 4-1h-3l-1-2 4-1h-4v-3h3v-1l-4 1 1 7Zm6-1h2c2 0 3-1 2-2l-1-2 1-2-3-1h-2l1 7Zm1-1-1-2h2l2 1-2 1h-1Zm-1-3v-2h1c1-1 2 0 2 1l-1 1h-2ZM6 145h1l1-6 2 6h1l1-8h-1l-1 6-2-5H7l-1 6-2-6H3l3 7Zm8-1h4v-1h-3l-1-2 4-1h-4v-2l3-1v-1l-4 1 1 7Zm6-1h2c2 0 3-1 3-2l-2-2 1-1c0-1-1-2-3-2h-2l1 7Zm1 0-1-3h2l2 1-2 1-1 1Zm-1-4v-2h2l1 1-1 1h-2Zm-9 14h1l1-6 2 6h1l1-8h-1l-1 6-2-5h-1l-1 6-2-6H8l3 7Zm8-1h4v-1h-3l-1-2 4-1h-4v-2l3-1v-1l-4 1 1 7Zm6-1h2c2 0 3-1 3-2l-2-2 1-1c0-1-1-2-3-2h-2l1 7Zm1 0-1-3h2l2 1-2 1-1 1Zm-1-4v-2h2l1 1-1 1h-2ZM3 166h1l1-6 2 6h1l1-8H8l-1 6-2-5H4l-1 6-2-6H0l3 7Zm8-1h4v-1h-3l-1-2 4-1h-4v-2l3-1v-1l-4 1 1 7Zm6-1h2c2 0 3-1 3-2l-2-2 1-1c0-2-1-2-3-2h-2l1 7Zm1 0-1-3h2l2 1-2 1-1 1Zm-1-4v-2h2l1 1-1 1h-2Z"/><path fill="#1D1D1D" d="M27 151h1l1-6 2 6h1l1-8h-1l-1 6-2-5h-1l-1 6-2-6h-1l3 7Zm8-1h4v-1h-3l-1-2 4-1h-4v-2l3-1v-1l-4 1 1 7Zm6-1h2c2 0 3-1 3-2l-2-2 1-1c0-1-1-2-3-2h-2l1 7Zm1 0-1-3h2l2 1-2 1-1 1Zm-1-4v-2h2l1 1-1 1h-2Zm10 19h1l1-6 2 6h1l1-8h-1l-1 6-2-5h-1l-1 6-2-6h-1l3 7Zm8-1h4v-1h-3l-1-2 4-1h-4v-2l3-1v-1l-4 1 1 7Zm6-1h2c2 0 3-1 2-2l-1-2 1-1c0-2-1-2-3-2h-2l1 7Zm1 0-1-3h2l2 1-2 1-1 1Zm-1-4v-2h1l2 1-1 1h-2Zm5 22h1v-6h1l2 6 1-1 1-7h-1l-1 6-2-5h-1l-1 6-2-6h-1l3 7Zm8-1h4v-1h-3l-1-2 3-1h-3v-2l3-1v-1l-4 1 1 7Zm6-1h2c2 0 3-1 2-2l-1-2 1-2-3-1h-2l1 7Zm0-1v-2h2l2 1-2 1h-2Zm0-3v-2h1l2 1-1 1h-2Zm-56-2h1l1-6 2 6 1-1 1-7h-1l-1 6-2-5h-1l-1 6-2-6h-1l3 7Zm8-1h4v-1h-3l-1-2 4-1h-4v-2l3-1v-1l-4 1 1 7Zm6-1h2c2 0 3-1 3-2l-2-2 1-1c0-2-1-2-3-2h-2l1 7Zm1-1-1-2h2l2 1-2 1h-1Zm-1-3v-2h2l1 1-1 1h-2Zm77 88 1-6 3 5h1l1-7h-1l-1 6-2-6h-1l-1 6v1l-2-6h-1l3 7Zm8-1 4-1h-4v-2l3-1v-1l-3 1v-3h3v-1l-4 1 1 7Zm6-1h2c2 0 2-1 2-2l-1-2 1-2c-1-1-1-2-3-1h-2l1 7Zm0-1v-2h2c1-1 1 0 1 1l-1 1h-2Zm0-3v-2l1-1 2 1-1 2h-2Zm-90 0h1l1-6 2 5h1l1-7h-1l-1 6-2-6h-1l-1 7-2-6h-1l3 7Zm8-1 4-1h-3l-1-2 4-1-1-1-3 1v-3h3v-1l-4 1 1 7Zm6-1h2c2 0 3-1 3-2l-2-2 1-2c0-1-1-2-3-1h-2l1 7Zm1-1-1-2h2c1-1 2 0 2 1l-2 1h-1Zm-1-3v-2l1-1 2 1-1 2h-2Zm-25-6h1l1-6 2 5h1l1-7h-1l-1 6-2-6h-1l-1 7-2-6h-1l3 7Zm8-1 4-1h-3l-1-2 4-1-1-1-3 1v-3h3v-1l-4 1 1 7Zm6-1h2c2 0 3-1 3-2l-2-2 1-2-3-1h-2l1 7Zm1-1-1-2h2c1-1 2 0 2 1l-2 1h-1Zm-1-3v-2l2-1 1 1-1 2h-2ZM12 114h1l1-6 2 6h1l1-8h-1l-1 6-2-5h-1l-1 6-2-6H9l3 7Zm8-1h4v-1h-3l-1-2h4v-1h-4v-2l3-1h-4l1 7Zm6 0 2-1c2 0 3-1 3-2l-2-2 1-1c0-1-1-2-3-2h-2l1 8Zm1-1-1-3h2l2 1-2 1-1 1Zm-1-4v-2h2l1 1-1 1h-2Zm0-26h1l1-6 2 6h1l1-8h-1l-1 6-2-5h-1l-1 6-2-6h-1l3 7Zm8-1h4v-1h-3l-1-2h4v-1h-4v-2l3-1h-4l1 7Zm6 0 2-1c2 0 3-1 3-2l-2-2 1-1c0-1-1-2-3-2h-2l1 8Zm1-1-1-3h2l2 1-2 2h-1Zm-1-4v-2h2l1 1-1 1h-2Zm-15-3h1l1-6 2 6h1l1-8h-1l-1 6-2-5h-1l-1 6-2-6h-1l3 7Zm8-1h4v-1h-3l-1-2h4v-1h-4v-2l3-1h-4l1 7Zm6 0 2-1c2 0 3-1 3-2l-2-2 1-1c0-1-1-2-3-2h-2l1 8Zm1-1-1-3h2l2 1-2 2h-1Zm-1-3v-3h2l1 1-1 1-2 1Z"/><path fill="#1D1D1D" d="M37 66h1l1-6 2 6h1l1-8h-1l-1 6-2-5h-1l-1 6-2-6h-1l3 7Zm8-1h4v-1l-3 1-1-3h4l-1-1h-3v-2l3-1h-4l1 7Zm6 0 2-1c2 0 3-1 3-2-1-1-1-2-2-1v-1l1-1c0-1-1-2-3-2h-2l1 8Zm1-1-1-3h2l2 1-2 2h-1Zm-1-3v-3h1l2 1-1 1-2 1Zm148 17h1l1-6 2 6h1l1-8-1 6-3-5h-1v6l-3-6h-1l3 7Zm8-1h5v-1h-4v-2h3v-1h-3l-1-2 4-1h-4v7Zm6 0 3-1c2 0 2-1 2-2l-2-2 1-1-2-2h-3l1 8Zm1-1v-3h2l1 1-1 2h-2Zm0-4-1-2h2l2 1-2 1h-1Zm-29 15h1l1-6 2 6h1l1-8-1 6-3-5h-1v6l-3-6h-1l3 7Zm8-1h5v-1h-4v-2h3v-1h-3v-2l3-1h-4v7Zm6 0 3-1c2 0 2-1 2-2l-2-2c1 0 2 0 1-1l-2-2h-3l1 8Zm1-1v-3h2l1 1-1 2h-2Zm0-4-1-2h2l2 1-2 1h-1Zm-88-62v-1l1-6 3 6h1l1-8-1 1-1 6-2-6h-1l-1 6-2-6-1 1 3 7Zm8-1 4-1v-1l-4 1v-3h3v-1h-3v-2h3v-1h-4l1 8Zm6-1 2-1c2 0 2-1 2-2l-1-1 1-2c-1-1-1-2-3-2l-2 1 1 7Zm0-1v-3h2l1 1c1 1 0 2-1 2h-2Zm0-3v-3h1l2 1-1 1-2 1Zm21 125h1l1-6 3 6 2-8h-1l-1 6-2-5h-1l-1 6-3-6 2 7Zm9-1h4v-1h-4v-2l3-1h-3v-2l3-1v-1l-4 1 1 7Zm5-1h3c2 0 2-1 2-2l-1-2 1-1c-1-1-1-2-3-2h-2v7Zm1 0v-3h2l1 1-1 1-2 1Zm0-4v-2h1l2 1-2 1h-1Zm-16-90h1l1-6 3 6 2-8-1 1-1 6-2-6h-1l-1 6-3-6v1l2 6Zm9-1h4v-1l-4 1v-3h3v-1h-3v-2l3-1h-4l1 7Zm5 0 3-1c2 0 2-1 2-2l-1-1 1-2c-1-1-1-2-3-2l-2 1v7Zm1-1v-3h2l1 1-1 2h-2Zm0-3v-3h1l2 1-2 1-1 1Zm34 24h1l1-6 2 6h1l1-8-1 7-3-6h-1v6l-3-6h-1l3 7Zm8-1h5v-1l-4 1v-3h3v-1h-3l-1-2 4-1h-4v7Zm6 0 3-1c2 0 2-1 2-2s-1-2-2-1v-1c1 0 2 0 1-1l-2-2h-3l1 8Zm1-1v-3h2l1 1-1 2h-2Zm0-3-1-3h2l2 1-2 1-1 1Zm-29-8h1l1-6 2 6h1l1-8-1 7-3-6h-1v6l-3-6 2 7Zm8-1h5v-1l-4 1v-3h3v-1h-3v-2l3-1h-4v7Zm6 0 3-1c2 0 2-1 2-2l-2-1v-1c1 0 2 0 1-1l-2-2-3 1 1 7Zm1-1v-3h2l1 1-1 2h-2Zm0-3-1-3h2l2 1-2 1-1 1Zm-23-2h1l1-6 3 6 1-8v1l-1 6-2-6h-1l-1 6-3-6v1l2 6Zm8-1h5v-1l-4 1v-3h3v-1h-3v-2h3v-1h-4v7Zm6 0 3-1c2 0 2-1 2-2l-2-1c1-1 2-1 1-2 0-1 0-2-2-2l-3 1 1 7Zm1-1v-3h2l1 1-1 2h-2Zm0-3-1-3h2l2 1-2 1-1 1ZM51 242h1l1-6 2 5h1l1-7h-1l-1 6-2-6h-1l-1 7-2-6h-1l3 7Zm8-1 4-1h-3l-1-2 4-1-1-1-3 1v-3h3v-1l-4 1 1 7Zm6-1h2c2 0 3-1 2-2l-1-2 1-2c0-1-1-2-3-1h-2l1 7Zm1-1-1-2h2c1-1 2 0 2 1l-2 1h-1Zm-1-3v-2l1-1 2 1-1 2h-2Zm-21-11h1l1-6 2 5h1l1-7h-1l-1 6-2-6-1 1-1 6-2-6h-1l3 7Zm8-1 4-1h-3l-1-2 4-1-1-1-3 1v-3h3v-1l-4 1 1 7Zm6-1h2c2 0 3-1 3-2l-2-2 1-2-3-1h-2l1 7Zm1-1-1-2h2l2 1-2 1h-1Zm-1-3v-2h3l-1 2h-2Zm3-13h1v-6h1l2 6 1-1 1-7h-1l-1 6-2-6-1 1-1 6-2-6h-1l3 7Zm8-1 4-1h-3l-1-2 4-1h-4v-3h3v-1l-4 1 1 7Zm6-1h2c2 0 3-1 2-2l-1-2 1-2-3-1h-2l1 7Zm0-1v-2h2l2 1-2 1h-2Zm0-3v-2h1c1-1 2 0 2 1l-1 1h-2Zm-62-39h1l1-6 2 6h1l1-8h-1l-1 6-2-5h-1l-1 6-2-6h-1l3 7Zm8-1h4v-1h-3l-1-2 4-1h-4v-2l3-1v-1l-4 1 1 7Zm6-1h2c2 0 3-1 3-2l-2-2 1-1c0-2-1-2-3-2h-2l1 7Zm1 0-1-3h2l2 1-2 1-1 1Zm-1-4v-2h2l1 1-1 1h-2Zm111-26h1l1-6 3 6h1l1-8h-1l-1 6-2-5h-1l-1 6-2-6h-1l2 7Zm9-1h4v-1h-4v-2l3-1h-3v-2l3-1v-1l-4 1 1 7Zm5-1h3c2 0 2-1 2-2l-1-2 1-1c-1-1-1-2-3-2h-2v7Zm1 0v-3h2l1 1c1 1 0 1-1 1l-2 1Zm0-4v-2h1l2 1-2 1h-1Zm-35-96 1-6 3 6h1l1-8-1 1-1 6-2-6h-1l-1 6-2-6-1 1 3 6Zm8-1h4v-1l-4 1v-3h3v-1h-3v-2h3v-1h-4l1 7Zm6 0 2-1c2 0 2-1 2-2l-1-1 1-2c-1-1-1-2-3-2l-2 1 1 7Zm0-1v-3h2l1 1c1 1 0 2-1 2h-2Zm0-3v-3h1l2 1-1 1-2 1Zm6 6h1l1-6 3 6h1l1-8-1 1-1 6-2-6h-1l-1 6-2-6-1 1 2 6Zm9-1h4v-1l-4 1v-3h3v-1h-3v-2h3v-1h-4l1 7Zm5 0 3-1c2 0 2-1 2-2l-1-1 1-2c-1-1-1-2-3-2l-2 1v7Zm1-1v-3h2l1 1c1 1 0 2-1 2h-2Zm0-3v-3h1l2 1-2 1-1 1Z"/><path fill="#1D1D1D" d="M119 13v-1l1-6 3 6h1l1-8-1 1-1 6-2-6h-1l-1 6-2-6-1 1 3 7Zm8-1 4-1v-1l-4 1V8h3V7h-3V5h3V4h-4l1 8Zm6-1 2-1c2 0 2-1 2-2l-1-1 1-2c-1-1-1-2-3-2l-2 1 1 7Zm0-1V7h2l1 1c1 1 0 2-1 2h-2Zm0-3V4h1l2 1-1 1-2 1Zm4 26h1l1-6 3 6h1l1-8-1 1-1 6-2-6h-1l-1 6-2-6-1 1 2 6Zm9-1h4v-1l-4 1v-3h3v-1h-3v-2h3v-1h-4l1 7Zm5 0 3-1c2 0 2-1 2-2l-1-1 1-2c-1-1-1-2-3-2l-2 1v7Zm1-1v-3h2l1 1c1 1 0 2-1 2h-2Zm0-3v-3h1l2 1-2 1-1 1Zm34 24h1l1-6 2 6h1l1-8-1 7-3-6h-1v6l-3-6h-1l3 7Zm8-1h5v-1l-4 1v-3h3v-1h-3v-2l3-1h-4v7Zm6 0 3-1c2 0 2-1 2-2l-2-1v-1c1 0 2 0 1-1l-2-2-3 1 1 7Zm1-1v-3h2l1 1-1 2h-2Zm0-3-1-3h2l2 1-2 1-1 1Zm-29-8h1l1-6 3 6 1-8v1l-1 6-2-6h-1l-1 6-3-6v1l2 6Zm8-1h5v-1l-4 1v-3h3v-1h-3v-2h3v-1h-4v7Zm6 0 3-1c2 0 2-1 2-2l-2-1c1-1 2-1 1-2 0-1 0-2-2-2l-3 1 1 7Zm1-1v-3h2l1 1-1 2h-2Zm0-3-1-3h2l2 1-2 1-1 1Zm-23-2h1l1-6 3 6 2-8-1 1-1 6-2-6h-1l-1 6-3-6v1l2 6Zm8-1h5v-1l-4 1v-3h3v-1h-3v-2h3v-1h-4v7Zm6 0 3-1c2 0 2-1 2-2l-1-1v-2c0-1 0-2-2-2l-2 1v7Zm1-1v-3h2l1 1-1 2h-2Zm0-3-1-3h2l2 1-2 1-1 1Zm-51 129 1-6 3 6h1l1-8h-1l-1 6-2-5h-1l-1 6-2-6h-1l3 7Zm8-1h4v-1h-4v-2l3-1h-3v-2l3-1v-1l-4 1 1 7Zm6-1h2c2 0 2-1 2-2l-1-2 1-1c-1-2-1-2-3-2h-2l1 7Zm0 0v-3h2l1 1c1 1 0 1-1 1l-2 1Zm0-4v-2h1l2 1-1 1h-2Zm111-91h1l1-6 2 6h1l1-8h-1v7l-3-6h-1l-1 6-2-6h-1l3 7Zm8-1h5v-1l-4 1v-3h3v-1h-3l-1-2 4-1h-5l1 7Zm6 0 3-1 2-2c0-1-1-2-2-1v-1l1-1-2-2h-3l1 8Zm1-1v-3h1l2 1-1 2h-2Zm0-3-1-3h2l1 1-1 1-1 1Zm-81 177h1l1-6 2 5h1l1-7h-1l-1 6-2-6-1 1-1 6-2-6h-1l3 7Zm8-1 4-1h-3v-2l3-1v-1l-4 1v-3h4v-1l-5 1 1 7Zm6-1h3l2-2-2-2 1-2-2-1h-3l1 7Zm1-1-1-2h2l2 1-1 1h-2Zm-1-3v-2l2-1 1 1-1 2h-2Zm-18 34h1l1-6 2 5h1l1-7h-1l-1 6-2-6h-1l-1 6-2-5h-1l3 7Zm8-1 5-1h-4v-2l3-1v-1l-4 1v-3h4v-1l-5 1 1 7Zm6-1h3l2-2c0-2-1-2-2-2l1-2c0-1-1-2-2-1h-3l1 7Zm1-1-1-2h2c1-1 2 0 2 1l-1 1h-2Zm-1-3v-2l2-1 1 1-1 2h-2Zm8 0h1l1-6 2 5h1l1-7h-1l-1 6-2-6h-1l-1 6v1l-2-6h-1l3 7Zm8-1 4-1h-3v-2l3-1v-1l-4 1v-3h4l-1-1-4 1 1 7Zm6-1h3l2-2c0-2-1-2-2-2l1-2c0-1-1-2-2-1h-3l1 7Zm1-1-1-2h2c1-1 2 0 2 1l-2 1h-1Zm-1-3v-2l2-1 1 1-1 2h-2Zm-30-39h1l1-6 2 6 1-1 1-7-1 6-3-6-1 1v6l-3-6h-1l3 7Zm8-1 5-1h-4v-2l3-1h-3v-3h3v-1l-4 1v7Zm6-1h3c2 0 2-1 2-2l-2-2c1 0 2-1 1-2l-2-1h-3l1 7Zm1-1v-2h2l1 1-1 1h-2Zm0-3-1-2h2c1-1 2 0 2 1l-2 1h-1Zm-30 48h1l1-6 3 5 1-7-1 6-2-6h-1l-1 7-3-6 2 7Zm8-1 5-1h-4v-2l3-1v-1l-3 1v-3h3v-1l-4 1v7Zm6-1h3c2 0 2-1 2-2 0-2-1-2-2-2 1 0 2-1 1-2 0-1 0-2-2-1h-3l1 7Zm1-1v-2h2c1-1 1 0 1 1l-1 1h-2Zm0-3-1-2 2-1 2 1-2 2h-1Z"/><path fill="#1D1D1D" d="M213 248h1l1-6 2 5h1l1-7-1 6-3-6h-1v7l-3-6h-1l3 7Zm8-1 5-1h-4v-2l3-1v-1l-3 1-1-3h4v-1l-5 1 1 7Zm6-1h3c2 0 2-1 2-2l-2-2 1-2c0-1-1-2-2-1h-3l1 7Zm1-1v-2h2l1 1-1 1h-2Zm0-3-1-2 2-1 2 1-2 2h-1Zm-116 36 1-6 3 5h1l1-7h-1l-1 6-2-6h-1l-1 6-2-5h-1l3 7Zm8-1 4-1h-4v-2l3-1v-1l-3 1v-3h3v-1l-4 1 1 7Zm6-1h2c2 0 2-1 2-2l-1-2 1-2c-1-1-1-2-3-1h-2l1 7Zm0-1v-2l2-1 1 2-1 1h-2Zm0-3v-2l1-1 2 1-1 2h-2Zm-29 0 1-6 3 5h1l1-7h-1l-1 6-2-6h-1l-1 6-2-5h-1l3 7Zm8-1 4-1h-4v-2l3-1v-1l-3 1v-3h3v-1l-4 1 1 7Zm6-1h2c2 0 3-1 2-2l-1-2 1-2c0-1-1-2-3-1h-2l1 7Zm0-1v-2h2c1-1 1 0 2 1l-2 1h-2Zm0-3v-2l1-1 2 1-1 2h-2Z"/></svg>